<?xml version="1.0" encoding="UTF-8" standalone="no"?>
<svg
   width="280.8pt"
   height="280.8pt"
   viewBox="0 0 280.8 280.8"
   version="1.1"
   id="svg870"
   sodipodi:docname="squareroot.svg"
   inkscape:export-filename="../97a2e81c/squareroot.pdf"
   inkscape:export-xdpi="96"
   inkscape:export-ydpi="96"
   inkscape:version="1.2.2 (732a01da63, 2022-12-09, custom)"
   xmlns:inkscape="http://www.inkscape.org/namespaces/inkscape"
   xmlns:sodipodi="http://sodipodi.sourceforge.net/DTD/sodipodi-0.dtd"
   xmlns:xlink="http://www.w3.org/1999/xlink"
   xmlns="http://www.w3.org/2000/svg"
   xmlns:svg="http://www.w3.org/2000/svg"
   xmlns:rdf="http://www.w3.org/1999/02/22-rdf-syntax-ns#"
   xmlns:cc="http://creativecommons.org/ns#"
   xmlns:dc="http://purl.org/dc/elements/1.1/">
  <sodipodi:namedview
     id="namedview872"
     pagecolor="#ffffff"
     bordercolor="#666666"
     borderopacity="1.0"
     inkscape:showpageshadow="2"
     inkscape:pageopacity="0.0"
     inkscape:pagecheckerboard="0"
     inkscape:deskcolor="#d1d1d1"
     inkscape:document-units="pt"
     showgrid="false"
     inkscape:zoom="2.2702992"
     inkscape:cx="187.19999"
     inkscape:cy="187.42023"
     inkscape:window-width="1452"
     inkscape:window-height="752"
     inkscape:window-x="239"
     inkscape:window-y="110"
     inkscape:window-maximized="0"
     inkscape:current-layer="svg870" />
  <metadata
     id="metadata753">
    <rdf:RDF>
      <cc:Work>
        <dc:type
           rdf:resource="http://purl.org/dc/dcmitype/StillImage" />
        <dc:date>2023-08-21T17:46:00.110631</dc:date>
        <dc:format>image/svg+xml</dc:format>
        <dc:creator>
          <cc:Agent>
            <dc:title>Matplotlib v3.6.2, https://matplotlib.org/</dc:title>
          </cc:Agent>
        </dc:creator>
      </cc:Work>
    </rdf:RDF>
  </metadata>
  <defs
     id="defs757">
    <style
       type="text/css"
       id="style755">*{stroke-linejoin: round; stroke-linecap: butt}</style>
  </defs>
  <g
     id="figure_1">
    <g
       id="patch_1">
      <path
         d="M 0 280.8  L 280.8 280.8  L 280.8 0  L 0 0  z "
         style="fill: #ffffff"
         id="path759" />
    </g>
    <g
       id="axes_1">
      <g
         id="patch_2">
        <path
           d="M 7.2 273.6  L 273.6 273.6  L 273.6 7.2  L 7.2 7.2  z "
           style="fill: #ffffff"
           id="path762" />
      </g>
      <g
         id="PathCollection_1">
        <path
           d="M 14.04223 268.476923  L 15.761384 268.476923  L 17.480537 268.476923  L 19.19969 268.476923  L 20.918844 268.476923  L 22.637997 268.476923  L 24.35715 268.476923  L 26.076304 268.476923  L 27.795457 268.476923  L 29.51461 268.476923  L 31.233764 268.476923  L 32.952917 268.476923  L 34.67207 268.476923  L 36.391224 268.476923  L 38.110377 268.476923  L 39.82953 268.476923  L 41.548684 268.476923  L 43.267837 268.476923  L 44.98699 268.476923  L 46.706144 268.476923  L 48.425297 268.476923  L 50.14445 268.476923  L 51.863604 268.476923  L 53.582757 268.476923  L 55.30191 268.476923  L 57.021064 268.476923  L 58.740217 268.476923  L 60.45937 268.476923  L 62.178523 268.476923  L 63.897677 268.476923  L 65.61683 268.476923  L 67.335983 268.476923  L 69.055137 268.476923  L 70.77429 268.476923  L 72.493443 268.476923  L 74.212597 268.476923  L 75.93175 268.476923  L 77.650903 268.476923  L 79.370057 268.476923  L 81.08921 268.476923  L 82.808363 268.476923  L 84.527517 268.476923  L 86.24667 268.476923  L 87.965823 268.476923  L 89.684977 268.476923  L 91.40413 268.476923  L 93.123283 268.476923  L 94.842437 268.476923  L 96.56159 268.476923  L 98.280743 268.476923  L 99.999897 268.476923  L 101.71905 268.476923  L 103.438203 268.476923  L 105.157357 268.476923  L 106.87651 268.476923  L 108.595663 268.476923  L 110.314817 268.476923  L 112.03397 268.476923  L 113.753123 268.476923  L 115.472277 268.476923  L 117.19143 268.476923  L 118.910583 268.476923  L 120.629737 268.476923  L 122.34889 268.476923  L 124.068043 268.476923  L 125.787197 268.476923  L 127.50635 268.476923  L 129.225503 268.476923  L 130.944657 268.476923  L 132.66381 268.476923  L 134.382963 268.476923  L 136.102117 268.476923  L 137.82127 268.476923  L 139.540423 268.476923  L 140.4 268.476923  L 139.540423 268.041287  L 137.82127 267.170016  L 137.007845 266.75777  L 136.102117 266.285904  L 134.382963 265.390261  L 133.707994 265.038616  L 132.66381 264.478964  L 130.944657 263.557547  L 130.500446 263.319463  L 129.225503 262.615884  L 127.50635 261.667166  L 127.385202 261.60031  L 125.787197 260.691521  L 124.362261 259.881156  L 124.068043 259.708564  L 122.34889 258.700085  L 121.431624 258.162003  L 120.629737 257.676307  L 118.910583 256.635032  L 118.59329 256.44285  L 117.19143 255.565215  L 115.84726 254.723696  L 115.472277 254.480773  L 113.753123 253.36706  L 113.193533 253.004543  L 112.03397 252.226278  L 110.63211 251.28539  L 110.314817 251.064471  L 108.595663 249.86749  L 108.162991 249.566236  L 106.87651 248.635724  L 105.786175 247.847083  L 105.157357 247.373882  L 103.501662 246.12793  L 103.438203 246.078165  L 101.71905 244.729987  L 101.309453 244.408776  L 99.999897 243.336667  L 99.209548 242.689623  L 98.280743 241.894268  L 97.201946 240.97047  L 96.56159 240.395693  L 95.286648 239.251316  L 94.842437 238.832409  L 93.463653 237.532163  L 93.123283 237.194063  L 91.732961 235.81301  L 91.40413 235.467968  L 90.094574 234.093856  L 89.684977 233.638409  L 88.548489 232.374703  L 87.965823 231.685677  L 87.094709 230.65555  L 86.24667 229.584721  L 85.733232 228.936396  L 84.527517 227.303201  L 84.464058 227.217243  L 83.287188 225.49809  L 82.808363 224.739102  L 82.202622 223.778936  L 81.210359 222.059783  L 81.08921 221.828359  L 80.310399 220.34063  L 79.502743 218.621477  L 79.370057 218.302601  L 78.787391 216.902323  L 78.164342 215.18317  L 77.650903 213.520076  L 77.633597 213.464017  L 77.195155 211.744863  L 76.849017 210.02571  L 76.595182 208.306557  L 76.433651 206.587403  L 76.364423 204.86825  L 76.387499 203.149097  L 76.502878 201.429943  L 76.710561 199.71079  L 77.010548 197.991637  L 77.402838 196.272483  L 77.650903 195.39244  L 77.887431 194.55333  L 78.464328 192.834177  L 79.133529 191.115023  L 79.370057 190.581044  L 79.895033 189.39587  L 80.748841 187.676717  L 81.08921 187.058241  L 81.694952 185.957563  L 82.733367 184.23841  L 82.808363 184.124384  L 83.864085 182.519257  L 84.527517 181.586697  L 85.087107 180.800103  L 86.24667 179.284534  L 86.402432 179.08095  L 87.810061 177.361797  L 87.965823 177.183269  L 89.309994 175.642643  L 89.684977 175.23777  L 90.90223 173.92349  L 91.40413 173.411276  L 92.586769 172.204337  L 93.123283 171.685242  L 94.363612 170.485183  L 94.842437 170.044783  L 96.232759 168.76603  L 96.56159 168.477819  L 98.194209 167.046877  L 98.280743 166.97444  L 99.999897 165.535374  L 100.247962 165.327723  L 101.71905 164.149271  L 102.39402 163.60857  L 103.438203 162.806594  L 104.63238 161.889417  L 105.157357 161.502182  L 106.87651 160.234093  L 106.963045 160.170263  L 108.595663 159.011881  L 109.386012 158.45111  L 110.314817 157.816285  L 111.901284 156.731957  L 112.03397 156.644478  L 113.753123 155.511053  L 114.508859 155.012803  L 115.472277 154.399345  L 117.19143 153.30467  L 117.208737 153.29365  L 118.910583 152.245819  L 120.000919 151.574497  L 120.629737 151.199721  L 122.34889 150.175106  L 122.885404 149.855343  L 124.068043 149.172346  L 125.787197 148.179502  L 125.862193 148.13619  L 127.50635 147.215215  L 128.931286 146.417037  L 129.225503 146.257042  L 130.944657 145.322174  L 132.092682 144.697883  L 132.66381 144.396117  L 134.382963 143.48777  L 135.346381 142.97873  L 136.102117 142.590438  L 137.82127 141.707149  L 138.692385 141.259577  L 139.540423 140.835557  L 141.259577 139.975981  L 142.130691 139.540423  L 142.97873 139.127489  L 144.697883 138.290385  L 145.661301 137.82127  L 146.417037 137.462657  L 148.13619 136.64688  L 149.284215 136.102117  L 149.855343 135.837837  L 151.574497 135.042328  L 152.999432 134.382963  L 153.29365 134.25012  L 155.012803 133.473896  L 156.731957 132.697672  L 156.806953 132.66381  L 158.45111 131.939019  L 160.170263 131.181167  L 160.706778 130.944657  L 161.889417 130.43537  L 163.60857 129.695041  L 164.698905 129.225503  L 165.327723 128.960831  L 167.046877 128.237233  L 168.76603 127.513635  L 168.783337 127.50635  L 170.485183 126.805866  L 172.204337 126.098259  L 172.960072 125.787197  L 173.92349 125.399226  L 175.642643 124.706918  L 177.22911 124.068043  L 177.361797 124.015741  L 179.08095 123.338085  L 180.800103 122.66043  L 181.590452 122.34889  L 182.519257 121.990362  L 184.23841 121.326751  L 185.957563 120.66314  L 186.044098 120.629737  L 187.676717 120.012325  L 189.39587 119.362188  L 190.590047 118.910583  L 191.115023 118.716003  L 192.834177 118.078804  L 194.55333 117.441605  L 195.228299 117.19143  L 196.272483 116.811958  L 197.991637 116.187193  L 199.71079 115.562427  L 199.958856 115.472277  L 201.429943 114.947894  L 203.149097 114.335086  L 204.781715 113.753123  L 204.86825 113.722857  L 206.587403 113.121556  L 208.306557 112.520256  L 209.696879 112.03397  L 210.02571 111.921076  L 211.744863 111.33086  L 213.464017 110.740644  L 214.704345 110.314817  L 215.18317 110.153403  L 216.902323 109.573869  L 218.621477 108.994336  L 219.804116 108.595663  L 220.34063 108.418018  L 222.059783 107.848787  L 223.778936 107.279556  L 224.996189 106.87651  L 225.49809 106.713228  L 227.217243 106.15394  L 228.936396 105.594652  L 230.280567 105.157357  L 230.65555 105.037459  L 232.374703 104.487772  L 234.093856 103.938086  L 235.657248 103.438203  L 235.81301 103.38924  L 237.532163 102.848831  L 239.251316 102.308422  L 240.97047 101.768013  L 241.126232 101.71905  L 242.689623 101.235761  L 244.408776 100.704322  L 246.12793 100.172882  L 246.68752 99.999897  L 247.847083 99.647295  L 249.566236 99.124532  L 251.28539 98.601769  L 252.341111 98.280743  L 253.004543 98.082247  L 254.723696 97.567882  L 256.44285 97.053516  L 258.087006 96.56159  L 258.162003 96.539506  L 259.881156 96.033273  L 261.60031 95.52704  L 263.319463 95.020807  L 263.925205 94.842437  L 265.038616 94.519677  L 266.75777 94.021324  L 268.476923 93.52297  L 268.476923 93.123283  L 268.476923 91.40413  L 268.476923 89.684977  L 268.476923 87.965823  L 268.476923 86.24667  L 268.476923 84.527517  L 268.476923 82.808363  L 268.476923 81.08921  L 268.476923 79.370057  L 268.476923 77.650903  L 268.476923 75.93175  L 268.476923 74.212597  L 268.476923 72.493443  L 268.476923 70.77429  L 268.476923 69.055137  L 268.476923 67.335983  L 268.476923 65.61683  L 268.476923 63.897677  L 268.476923 62.178523  L 268.476923 60.45937  L 268.476923 58.740217  L 268.476923 57.021064  L 268.476923 55.30191  L 268.476923 53.582757  L 268.476923 51.863604  L 268.476923 50.14445  L 268.476923 48.425297  L 268.476923 46.706144  L 268.476923 44.98699  L 268.476923 43.267837  L 268.476923 41.548684  L 268.476923 39.82953  L 268.476923 38.110377  L 268.476923 36.391224  L 268.476923 34.67207  L 268.476923 32.952917  L 268.476923 31.233764  L 268.476923 29.51461  L 268.476923 27.795457  L 268.476923 26.076304  L 268.476923 24.35715  L 268.476923 22.637997  L 268.476923 20.918844  L 268.476923 19.19969  L 268.476923 17.480537  L 268.476923 15.761384  L 268.476923 14.04223  L 268.476923 12.323077  L 266.75777 12.323077  L 265.038616 12.323077  L 263.319463 12.323077  L 261.60031 12.323077  L 259.881156 12.323077  L 258.162003 12.323077  L 256.44285 12.323077  L 254.723696 12.323077  L 253.004543 12.323077  L 251.28539 12.323077  L 249.566236 12.323077  L 247.847083 12.323077  L 246.12793 12.323077  L 244.408776 12.323077  L 242.689623 12.323077  L 240.97047 12.323077  L 239.251316 12.323077  L 237.532163 12.323077  L 235.81301 12.323077  L 234.093856 12.323077  L 232.374703 12.323077  L 230.65555 12.323077  L 228.936396 12.323077  L 227.217243 12.323077  L 225.49809 12.323077  L 223.778936 12.323077  L 222.059783 12.323077  L 220.34063 12.323077  L 218.621477 12.323077  L 216.902323 12.323077  L 215.18317 12.323077  L 213.464017 12.323077  L 211.744863 12.323077  L 210.02571 12.323077  L 208.306557 12.323077  L 206.587403 12.323077  L 204.86825 12.323077  L 203.149097 12.323077  L 201.429943 12.323077  L 199.71079 12.323077  L 197.991637 12.323077  L 196.272483 12.323077  L 194.55333 12.323077  L 192.834177 12.323077  L 191.115023 12.323077  L 189.39587 12.323077  L 187.676717 12.323077  L 185.957563 12.323077  L 184.23841 12.323077  L 182.519257 12.323077  L 180.800103 12.323077  L 179.08095 12.323077  L 177.361797 12.323077  L 175.642643 12.323077  L 173.92349 12.323077  L 172.204337 12.323077  L 170.485183 12.323077  L 168.76603 12.323077  L 167.046877 12.323077  L 165.327723 12.323077  L 163.60857 12.323077  L 161.889417 12.323077  L 160.170263 12.323077  L 158.45111 12.323077  L 156.731957 12.323077  L 155.012803 12.323077  L 153.29365 12.323077  L 151.574497 12.323077  L 149.855343 12.323077  L 148.13619 12.323077  L 146.417037 12.323077  L 144.697883 12.323077  L 142.97873 12.323077  L 141.259577 12.323077  L 139.540423 12.323077  L 137.82127 12.323077  L 136.102117 12.323077  L 134.382963 12.323077  L 132.66381 12.323077  L 130.944657 12.323077  L 129.225503 12.323077  L 127.50635 12.323077  L 125.787197 12.323077  L 124.068043 12.323077  L 122.34889 12.323077  L 120.629737 12.323077  L 118.910583 12.323077  L 117.19143 12.323077  L 115.472277 12.323077  L 113.753123 12.323077  L 112.03397 12.323077  L 110.314817 12.323077  L 108.595663 12.323077  L 106.87651 12.323077  L 105.157357 12.323077  L 103.438203 12.323077  L 101.71905 12.323077  L 99.999897 12.323077  L 98.280743 12.323077  L 96.56159 12.323077  L 94.842437 12.323077  L 93.123283 12.323077  L 91.40413 12.323077  L 89.684977 12.323077  L 87.965823 12.323077  L 86.24667 12.323077  L 84.527517 12.323077  L 82.808363 12.323077  L 81.08921 12.323077  L 79.370057 12.323077  L 77.650903 12.323077  L 75.93175 12.323077  L 74.212597 12.323077  L 72.493443 12.323077  L 70.77429 12.323077  L 69.055137 12.323077  L 67.335983 12.323077  L 65.61683 12.323077  L 63.897677 12.323077  L 62.178523 12.323077  L 60.45937 12.323077  L 58.740217 12.323077  L 57.021064 12.323077  L 55.30191 12.323077  L 53.582757 12.323077  L 51.863604 12.323077  L 50.14445 12.323077  L 48.425297 12.323077  L 46.706144 12.323077  L 44.98699 12.323077  L 43.267837 12.323077  L 41.548684 12.323077  L 39.82953 12.323077  L 38.110377 12.323077  L 36.391224 12.323077  L 34.67207 12.323077  L 32.952917 12.323077  L 31.233764 12.323077  L 29.51461 12.323077  L 27.795457 12.323077  L 26.076304 12.323077  L 24.35715 12.323077  L 22.637997 12.323077  L 20.918844 12.323077  L 19.19969 12.323077  L 17.480537 12.323077  L 15.761384 12.323077  L 14.04223 12.323077  L 12.323077 12.323077  L 12.323077 14.04223  L 12.323077 15.761384  L 12.323077 17.480537  L 12.323077 19.19969  L 12.323077 20.918844  L 12.323077 22.637997  L 12.323077 24.35715  L 12.323077 26.076304  L 12.323077 27.795457  L 12.323077 29.51461  L 12.323077 31.233764  L 12.323077 32.952917  L 12.323077 34.67207  L 12.323077 36.391224  L 12.323077 38.110377  L 12.323077 39.82953  L 12.323077 41.548684  L 12.323077 43.267837  L 12.323077 44.98699  L 12.323077 46.706144  L 12.323077 48.425297  L 12.323077 50.14445  L 12.323077 51.863604  L 12.323077 53.582757  L 12.323077 55.30191  L 12.323077 57.021064  L 12.323077 58.740217  L 12.323077 60.45937  L 12.323077 62.178523  L 12.323077 63.897677  L 12.323077 65.61683  L 12.323077 67.335983  L 12.323077 69.055137  L 12.323077 70.77429  L 12.323077 72.493443  L 12.323077 74.212597  L 12.323077 75.93175  L 12.323077 77.650903  L 12.323077 79.370057  L 12.323077 81.08921  L 12.323077 82.808363  L 12.323077 84.527517  L 12.323077 86.24667  L 12.323077 87.965823  L 12.323077 89.684977  L 12.323077 91.40413  L 12.323077 93.123283  L 12.323077 94.842437  L 12.323077 96.56159  L 12.323077 98.280743  L 12.323077 99.999897  L 12.323077 101.71905  L 12.323077 103.438203  L 12.323077 105.157357  L 12.323077 106.87651  L 12.323077 108.595663  L 12.323077 110.314817  L 12.323077 112.03397  L 12.323077 113.753123  L 12.323077 115.472277  L 12.323077 117.19143  L 12.323077 118.910583  L 12.323077 120.629737  L 12.323077 122.34889  L 12.323077 124.068043  L 12.323077 125.787197  L 12.323077 127.50635  L 12.323077 129.225503  L 12.323077 130.944657  L 12.323077 132.66381  L 12.323077 134.382963  L 12.323077 136.102117  L 12.323077 137.82127  L 12.323077 139.540423  L 12.323077 141.259577  L 12.323077 142.97873  L 12.323077 144.697883  L 12.323077 146.417037  L 12.323077 148.13619  L 12.323077 149.855343  L 12.323077 151.574497  L 12.323077 153.29365  L 12.323077 155.012803  L 12.323077 156.731957  L 12.323077 158.45111  L 12.323077 160.170263  L 12.323077 161.889417  L 12.323077 163.60857  L 12.323077 165.327723  L 12.323077 167.046877  L 12.323077 168.76603  L 12.323077 170.485183  L 12.323077 172.204337  L 12.323077 173.92349  L 12.323077 175.642643  L 12.323077 177.361797  L 12.323077 179.08095  L 12.323077 180.800103  L 12.323077 182.519257  L 12.323077 184.23841  L 12.323077 185.957563  L 12.323077 187.676717  L 12.323077 189.39587  L 12.323077 191.115023  L 12.323077 192.834177  L 12.323077 194.55333  L 12.323077 196.272483  L 12.323077 197.991637  L 12.323077 199.71079  L 12.323077 201.429943  L 12.323077 203.149097  L 12.323077 204.86825  L 12.323077 206.587403  L 12.323077 208.306557  L 12.323077 210.02571  L 12.323077 211.744863  L 12.323077 213.464017  L 12.323077 215.18317  L 12.323077 216.902323  L 12.323077 218.621477  L 12.323077 220.34063  L 12.323077 222.059783  L 12.323077 223.778936  L 12.323077 225.49809  L 12.323077 227.217243  L 12.323077 228.936396  L 12.323077 230.65555  L 12.323077 232.374703  L 12.323077 234.093856  L 12.323077 235.81301  L 12.323077 237.532163  L 12.323077 239.251316  L 12.323077 240.97047  L 12.323077 242.689623  L 12.323077 244.408776  L 12.323077 246.12793  L 12.323077 247.847083  L 12.323077 249.566236  L 12.323077 251.28539  L 12.323077 253.004543  L 12.323077 254.723696  L 12.323077 256.44285  L 12.323077 258.162003  L 12.323077 259.881156  L 12.323077 261.60031  L 12.323077 263.319463  L 12.323077 265.038616  L 12.323077 266.75777  L 12.323077 268.476923  z "
           clip-path="url(#p6e928c8729)"
           style="fill: #ffffff"
           id="path765" />
      </g>
      <g
         id="PathCollection_2">
        <path
           d="M 137.82127 267.170016  L 139.540423 268.041287  L 140.4 268.476923  L 140.4 268.476923  L 139.540423 268.041287  L 137.82127 267.170016  L 137.007845 266.75777  L 136.102117 266.285904  L 134.382963 265.390261  L 133.707994 265.038616  L 132.66381 264.478964  L 130.944657 263.557547  L 130.500446 263.319463  L 129.225503 262.615884  L 127.50635 261.667166  L 127.385202 261.60031  L 125.787197 260.691521  L 124.362261 259.881156  L 124.068043 259.708564  L 122.34889 258.700085  L 121.431624 258.162003  L 120.629737 257.676307  L 118.910583 256.635032  L 118.59329 256.44285  L 117.19143 255.565215  L 115.84726 254.723696  L 115.472277 254.480773  L 113.753123 253.36706  L 113.193533 253.004543  L 112.03397 252.226278  L 110.63211 251.28539  L 110.314817 251.064471  L 108.595663 249.86749  L 108.162991 249.566236  L 106.87651 248.635724  L 105.786175 247.847083  L 105.157357 247.373882  L 103.501662 246.12793  L 103.438203 246.078165  L 101.71905 244.729987  L 101.309453 244.408776  L 99.999897 243.336667  L 99.209548 242.689623  L 98.280743 241.894268  L 97.201946 240.97047  L 96.56159 240.395693  L 95.286648 239.251316  L 94.842437 238.832409  L 93.463653 237.532163  L 93.123283 237.194063  L 91.732961 235.81301  L 91.40413 235.467968  L 90.094574 234.093856  L 89.684977 233.638409  L 88.548489 232.374703  L 87.965823 231.685677  L 87.094709 230.65555  L 86.24667 229.584721  L 85.733232 228.936396  L 84.527517 227.303201  L 84.464058 227.217243  L 83.287188 225.49809  L 82.808363 224.739102  L 82.202622 223.778936  L 81.210359 222.059783  L 81.08921 221.828359  L 80.310399 220.34063  L 79.502743 218.621477  L 79.370057 218.302601  L 78.787391 216.902323  L 78.164342 215.18317  L 77.650903 213.520076  L 77.633597 213.464017  L 77.195155 211.744863  L 76.849017 210.02571  L 76.595182 208.306557  L 76.433651 206.587403  L 76.364423 204.86825  L 76.387499 203.149097  L 76.502878 201.429943  L 76.710561 199.71079  L 77.010548 197.991637  L 77.402838 196.272483  L 77.650903 195.39244  L 77.887431 194.55333  L 78.464328 192.834177  L 79.133529 191.115023  L 79.370057 190.581044  L 79.895033 189.39587  L 80.748841 187.676717  L 81.08921 187.058241  L 81.694952 185.957563  L 82.733367 184.23841  L 82.808363 184.124384  L 83.864085 182.519257  L 84.527517 181.586697  L 85.087107 180.800103  L 86.24667 179.284534  L 86.402432 179.08095  L 87.810061 177.361797  L 87.965823 177.183269  L 89.309994 175.642643  L 89.684977 175.23777  L 90.90223 173.92349  L 91.40413 173.411276  L 92.586769 172.204337  L 93.123283 171.685242  L 94.363612 170.485183  L 94.842437 170.044783  L 96.232759 168.76603  L 96.56159 168.477819  L 98.194209 167.046877  L 98.280743 166.97444  L 99.999897 165.535374  L 100.247962 165.327723  L 101.71905 164.149271  L 102.39402 163.60857  L 103.438203 162.806594  L 104.63238 161.889417  L 105.157357 161.502182  L 106.87651 160.234093  L 106.963045 160.170263  L 108.595663 159.011881  L 109.386012 158.45111  L 110.314817 157.816285  L 111.901284 156.731957  L 112.03397 156.644478  L 113.753123 155.511053  L 114.508859 155.012803  L 115.472277 154.399345  L 117.19143 153.30467  L 117.208737 153.29365  L 118.910583 152.245819  L 120.000919 151.574497  L 120.629737 151.199721  L 122.34889 150.175106  L 122.885404 149.855343  L 124.068043 149.172346  L 125.787197 148.179502  L 125.862193 148.13619  L 127.50635 147.215215  L 128.931286 146.417037  L 129.225503 146.257042  L 130.944657 145.322174  L 132.092682 144.697883  L 132.66381 144.396117  L 134.382963 143.48777  L 135.346381 142.97873  L 136.102117 142.590438  L 137.82127 141.707149  L 138.692385 141.259577  L 139.540423 140.835557  L 141.259577 139.975981  L 142.130691 139.540423  L 142.97873 139.127489  L 144.697883 138.290385  L 145.661301 137.82127  L 146.417037 137.462657  L 148.13619 136.64688  L 149.284215 136.102117  L 149.855343 135.837837  L 151.574497 135.042328  L 152.999432 134.382963  L 153.29365 134.25012  L 155.012803 133.473896  L 156.731957 132.697672  L 156.806953 132.66381  L 158.45111 131.939019  L 160.170263 131.181167  L 160.706778 130.944657  L 161.889417 130.43537  L 163.60857 129.695041  L 164.698905 129.225503  L 165.327723 128.960831  L 167.046877 128.237233  L 168.76603 127.513635  L 168.783337 127.50635  L 170.485183 126.805866  L 172.204337 126.098259  L 172.960072 125.787197  L 173.92349 125.399226  L 175.642643 124.706918  L 177.22911 124.068043  L 177.361797 124.015741  L 179.08095 123.338085  L 180.800103 122.66043  L 181.590452 122.34889  L 182.519257 121.990362  L 184.23841 121.326751  L 185.957563 120.66314  L 186.044098 120.629737  L 187.676717 120.012325  L 189.39587 119.362188  L 190.590047 118.910583  L 191.115023 118.716003  L 192.834177 118.078804  L 194.55333 117.441605  L 195.228299 117.19143  L 196.272483 116.811958  L 197.991637 116.187193  L 199.71079 115.562427  L 199.958856 115.472277  L 201.429943 114.947894  L 203.149097 114.335086  L 204.781715 113.753123  L 204.86825 113.722857  L 206.587403 113.121556  L 208.306557 112.520256  L 209.696879 112.03397  L 210.02571 111.921076  L 211.744863 111.33086  L 213.464017 110.740644  L 214.704345 110.314817  L 215.18317 110.153403  L 216.902323 109.573869  L 218.621477 108.994336  L 219.804116 108.595663  L 220.34063 108.418018  L 222.059783 107.848787  L 223.778936 107.279556  L 224.996189 106.87651  L 225.49809 106.713228  L 227.217243 106.15394  L 228.936396 105.594652  L 230.280567 105.157357  L 230.65555 105.037459  L 232.374703 104.487772  L 234.093856 103.938086  L 235.657248 103.438203  L 235.81301 103.38924  L 237.532163 102.848831  L 239.251316 102.308422  L 240.97047 101.768013  L 241.126232 101.71905  L 242.689623 101.235761  L 244.408776 100.704322  L 246.12793 100.172882  L 246.68752 99.999897  L 247.847083 99.647295  L 249.566236 99.124532  L 251.28539 98.601769  L 252.341111 98.280743  L 253.004543 98.082247  L 254.723696 97.567882  L 256.44285 97.053516  L 258.087006 96.56159  L 258.162003 96.539506  L 259.881156 96.033273  L 261.60031 95.52704  L 263.319463 95.020807  L 263.925205 94.842437  L 265.038616 94.519677  L 266.75777 94.021324  L 268.476923 93.52297  L 268.476923 93.52297  L 266.75777 94.021324  L 265.038616 94.519677  L 263.925205 94.842437  L 263.319463 95.020807  L 261.60031 95.52704  L 259.881156 96.033273  L 258.162003 96.539506  L 258.087006 96.56159  L 256.44285 97.053516  L 254.723696 97.567882  L 253.004543 98.082247  L 252.341111 98.280743  L 251.28539 98.601769  L 249.566236 99.124532  L 247.847083 99.647295  L 246.68752 99.999897  L 246.12793 100.172882  L 244.408776 100.704322  L 242.689623 101.235761  L 241.126232 101.71905  L 240.97047 101.768013  L 239.251316 102.308422  L 237.532163 102.848831  L 235.81301 103.38924  L 235.657248 103.438203  L 234.093856 103.938086  L 232.374703 104.487772  L 230.65555 105.037459  L 230.280567 105.157357  L 228.936396 105.594652  L 227.217243 106.15394  L 225.49809 106.713228  L 224.996189 106.87651  L 223.778936 107.279556  L 222.059783 107.848787  L 220.34063 108.418018  L 219.804116 108.595663  L 218.621477 108.994336  L 216.902323 109.573869  L 215.18317 110.153403  L 214.704345 110.314817  L 213.464017 110.740644  L 211.744863 111.33086  L 210.02571 111.921076  L 209.696879 112.03397  L 208.306557 112.520256  L 206.587403 113.121556  L 204.86825 113.722857  L 204.781715 113.753123  L 203.149097 114.335086  L 201.429943 114.947894  L 199.958856 115.472277  L 199.71079 115.562427  L 197.991637 116.187193  L 196.272483 116.811958  L 195.228299 117.19143  L 194.55333 117.441605  L 192.834177 118.078804  L 191.115023 118.716003  L 190.590047 118.910583  L 189.39587 119.362188  L 187.676717 120.012325  L 186.044098 120.629737  L 185.957563 120.66314  L 184.23841 121.326751  L 182.519257 121.990362  L 181.590452 122.34889  L 180.800103 122.66043  L 179.08095 123.338085  L 177.361797 124.015741  L 177.22911 124.068043  L 175.642643 124.706918  L 173.92349 125.399226  L 172.960072 125.787197  L 172.204337 126.098259  L 170.485183 126.805866  L 168.783337 127.50635  L 168.76603 127.513635  L 167.046877 128.237233  L 165.327723 128.960831  L 164.698905 129.225503  L 163.60857 129.695041  L 161.889417 130.43537  L 160.706778 130.944657  L 160.170263 131.181167  L 158.45111 131.939019  L 156.806953 132.66381  L 156.731957 132.697672  L 155.012803 133.473896  L 153.29365 134.25012  L 152.999432 134.382963  L 151.574497 135.042328  L 149.855343 135.837837  L 149.284215 136.102117  L 148.13619 136.64688  L 146.417037 137.462657  L 145.661301 137.82127  L 144.697883 138.290385  L 142.97873 139.127489  L 142.130691 139.540423  L 141.259577 139.975981  L 139.540423 140.835557  L 138.692385 141.259577  L 137.82127 141.707149  L 136.102117 142.590438  L 135.346381 142.97873  L 134.382963 143.48777  L 132.66381 144.396117  L 132.092682 144.697883  L 130.944657 145.322174  L 129.225503 146.257042  L 128.931286 146.417037  L 127.50635 147.215215  L 125.862193 148.13619  L 125.787197 148.179502  L 124.068043 149.172346  L 122.885404 149.855343  L 122.34889 150.175106  L 120.629737 151.199721  L 120.000919 151.574497  L 118.910583 152.245819  L 117.208737 153.29365  L 117.19143 153.30467  L 115.472277 154.399345  L 114.508859 155.012803  L 113.753123 155.511053  L 112.03397 156.644478  L 111.901284 156.731957  L 110.314817 157.816285  L 109.386012 158.45111  L 108.595663 159.011881  L 106.963045 160.170263  L 106.87651 160.234093  L 105.157357 161.502182  L 104.63238 161.889417  L 103.438203 162.806594  L 102.39402 163.60857  L 101.71905 164.149271  L 100.247962 165.327723  L 99.999897 165.535374  L 98.280743 166.97444  L 98.194209 167.046877  L 96.56159 168.477819  L 96.232759 168.76603  L 94.842437 170.044783  L 94.363612 170.485183  L 93.123283 171.685242  L 92.586769 172.204337  L 91.40413 173.411276  L 90.90223 173.92349  L 89.684977 175.23777  L 89.309994 175.642643  L 87.965823 177.183269  L 87.810061 177.361797  L 86.402432 179.08095  L 86.24667 179.284534  L 85.087107 180.800103  L 84.527517 181.586697  L 83.864085 182.519257  L 82.808363 184.124384  L 82.733367 184.23841  L 81.694952 185.957563  L 81.08921 187.058241  L 80.748841 187.676717  L 79.895033 189.39587  L 79.370057 190.581044  L 79.133529 191.115023  L 78.464328 192.834177  L 77.887431 194.55333  L 77.650903 195.39244  L 77.402838 196.272483  L 77.010548 197.991637  L 76.710561 199.71079  L 76.502878 201.429943  L 76.387499 203.149097  L 76.364423 204.86825  L 76.433651 206.587403  L 76.595182 208.306557  L 76.849017 210.02571  L 77.195155 211.744863  L 77.633597 213.464017  L 77.650903 213.520076  L 78.164342 215.18317  L 78.787391 216.902323  L 79.370057 218.302601  L 79.502743 218.621477  L 80.310399 220.34063  L 81.08921 221.828359  L 81.210359 222.059783  L 82.202622 223.778936  L 82.808363 224.739102  L 83.287188 225.49809  L 84.464058 227.217243  L 84.527517 227.303201  L 85.733232 228.936396  L 86.24667 229.584721  L 87.094709 230.65555  L 87.965823 231.685677  L 88.548489 232.374703  L 89.684977 233.638409  L 90.094574 234.093856  L 91.40413 235.467968  L 91.732961 235.81301  L 93.123283 237.194063  L 93.463653 237.532163  L 94.842437 238.832409  L 95.286648 239.251316  L 96.56159 240.395693  L 97.201946 240.97047  L 98.280743 241.894268  L 99.209548 242.689623  L 99.999897 243.336667  L 101.309453 244.408776  L 101.71905 244.729987  L 103.438203 246.078165  L 103.501662 246.12793  L 105.157357 247.373882  L 105.786175 247.847083  L 106.87651 248.635724  L 108.162991 249.566236  L 108.595663 249.86749  L 110.314817 251.064471  L 110.63211 251.28539  L 112.03397 252.226278  L 113.193533 253.004543  L 113.753123 253.36706  L 115.472277 254.480773  L 115.84726 254.723696  L 117.19143 255.565215  L 118.59329 256.44285  L 118.910583 256.635032  L 120.629737 257.676307  L 121.431624 258.162003  L 122.34889 258.700085  L 124.068043 259.708564  L 124.362261 259.881156  L 125.787197 260.691521  L 127.385202 261.60031  L 127.50635 261.667166  L 129.225503 262.615884  L 130.500446 263.319463  L 130.944657 263.557547  L 132.66381 264.478964  L 133.707994 265.038616  L 134.382963 265.390261  L 136.102117 266.285904  L 137.007845 266.75777  z "
           clip-path="url(#p6e928c8729)"
           style="fill: #ffffff"
           id="path768" />
      </g>
      <g
         id="PathCollection_3">
        <path
           d="M 137.82127 267.170016  L 139.540423 268.041287  L 140.4 268.476923  L 140.4 268.476923  L 139.540423 268.041287  L 137.82127 267.170016  L 137.007845 266.75777  L 136.102117 266.285904  L 134.382963 265.390261  L 133.707994 265.038616  L 132.66381 264.478964  L 130.944657 263.557547  L 130.500446 263.319463  L 129.225503 262.615884  L 127.50635 261.667166  L 127.385202 261.60031  L 125.787197 260.691521  L 124.362261 259.881156  L 124.068043 259.708564  L 122.34889 258.700085  L 121.431624 258.162003  L 120.629737 257.676307  L 118.910583 256.635032  L 118.59329 256.44285  L 117.19143 255.565215  L 115.84726 254.723696  L 115.472277 254.480773  L 113.753123 253.36706  L 113.193533 253.004543  L 112.03397 252.226278  L 110.63211 251.28539  L 110.314817 251.064471  L 108.595663 249.86749  L 108.162991 249.566236  L 106.87651 248.635724  L 105.786175 247.847083  L 105.157357 247.373882  L 103.501662 246.12793  L 103.438203 246.078165  L 101.71905 244.729987  L 101.309453 244.408776  L 99.999897 243.336667  L 99.209548 242.689623  L 98.280743 241.894268  L 97.201946 240.97047  L 96.56159 240.395693  L 95.286648 239.251316  L 94.842437 238.832409  L 93.463653 237.532163  L 93.123283 237.194063  L 91.732961 235.81301  L 91.40413 235.467968  L 90.094574 234.093856  L 89.684977 233.638409  L 88.548489 232.374703  L 87.965823 231.685677  L 87.094709 230.65555  L 86.24667 229.584721  L 85.733232 228.936396  L 84.527517 227.303201  L 84.464058 227.217243  L 83.287188 225.49809  L 82.808363 224.739102  L 82.202622 223.778936  L 81.210359 222.059783  L 81.08921 221.828359  L 80.310399 220.34063  L 79.502743 218.621477  L 79.370057 218.302601  L 78.787391 216.902323  L 78.164342 215.18317  L 77.650903 213.520076  L 77.633597 213.464017  L 77.195155 211.744863  L 76.849017 210.02571  L 76.595182 208.306557  L 76.433651 206.587403  L 76.364423 204.86825  L 76.387499 203.149097  L 76.502878 201.429943  L 76.710561 199.71079  L 77.010548 197.991637  L 77.402838 196.272483  L 77.650903 195.39244  L 77.887431 194.55333  L 78.464328 192.834177  L 79.133529 191.115023  L 79.370057 190.581044  L 79.895033 189.39587  L 80.748841 187.676717  L 81.08921 187.058241  L 81.694952 185.957563  L 82.733367 184.23841  L 82.808363 184.124384  L 83.864085 182.519257  L 84.527517 181.586697  L 85.087107 180.800103  L 86.24667 179.284534  L 86.402432 179.08095  L 87.810061 177.361797  L 87.965823 177.183269  L 89.309994 175.642643  L 89.684977 175.23777  L 90.90223 173.92349  L 91.40413 173.411276  L 92.586769 172.204337  L 93.123283 171.685242  L 94.363612 170.485183  L 94.842437 170.044783  L 96.232759 168.76603  L 96.56159 168.477819  L 98.194209 167.046877  L 98.280743 166.97444  L 99.999897 165.535374  L 100.247962 165.327723  L 101.71905 164.149271  L 102.39402 163.60857  L 103.438203 162.806594  L 104.63238 161.889417  L 105.157357 161.502182  L 106.87651 160.234093  L 106.963045 160.170263  L 108.595663 159.011881  L 109.386012 158.45111  L 110.314817 157.816285  L 111.901284 156.731957  L 112.03397 156.644478  L 113.753123 155.511053  L 114.508859 155.012803  L 115.472277 154.399345  L 117.19143 153.30467  L 117.208737 153.29365  L 118.910583 152.245819  L 120.000919 151.574497  L 120.629737 151.199721  L 122.34889 150.175106  L 122.885404 149.855343  L 124.068043 149.172346  L 125.787197 148.179502  L 125.862193 148.13619  L 127.50635 147.215215  L 128.931286 146.417037  L 129.225503 146.257042  L 130.944657 145.322174  L 132.092682 144.697883  L 132.66381 144.396117  L 134.382963 143.48777  L 135.346381 142.97873  L 136.102117 142.590438  L 137.82127 141.707149  L 138.692385 141.259577  L 139.540423 140.835557  L 141.259577 139.975981  L 142.130691 139.540423  L 142.97873 139.127489  L 144.697883 138.290385  L 145.661301 137.82127  L 146.417037 137.462657  L 148.13619 136.64688  L 149.284215 136.102117  L 149.855343 135.837837  L 151.574497 135.042328  L 152.999432 134.382963  L 153.29365 134.25012  L 155.012803 133.473896  L 156.731957 132.697672  L 156.806953 132.66381  L 158.45111 131.939019  L 160.170263 131.181167  L 160.706778 130.944657  L 161.889417 130.43537  L 163.60857 129.695041  L 164.698905 129.225503  L 165.327723 128.960831  L 167.046877 128.237233  L 168.76603 127.513635  L 168.783337 127.50635  L 170.485183 126.805866  L 172.204337 126.098259  L 172.960072 125.787197  L 173.92349 125.399226  L 175.642643 124.706918  L 177.22911 124.068043  L 177.361797 124.015741  L 179.08095 123.338085  L 180.800103 122.66043  L 181.590452 122.34889  L 182.519257 121.990362  L 184.23841 121.326751  L 185.957563 120.66314  L 186.044098 120.629737  L 187.676717 120.012325  L 189.39587 119.362188  L 190.590047 118.910583  L 191.115023 118.716003  L 192.834177 118.078804  L 194.55333 117.441605  L 195.228299 117.19143  L 196.272483 116.811958  L 197.991637 116.187193  L 199.71079 115.562427  L 199.958856 115.472277  L 201.429943 114.947894  L 203.149097 114.335086  L 204.781715 113.753123  L 204.86825 113.722857  L 206.587403 113.121556  L 208.306557 112.520256  L 209.696879 112.03397  L 210.02571 111.921076  L 211.744863 111.33086  L 213.464017 110.740644  L 214.704345 110.314817  L 215.18317 110.153403  L 216.902323 109.573869  L 218.621477 108.994336  L 219.804116 108.595663  L 220.34063 108.418018  L 222.059783 107.848787  L 223.778936 107.279556  L 224.996189 106.87651  L 225.49809 106.713228  L 227.217243 106.15394  L 228.936396 105.594652  L 230.280567 105.157357  L 230.65555 105.037459  L 232.374703 104.487772  L 234.093856 103.938086  L 235.657248 103.438203  L 235.81301 103.38924  L 237.532163 102.848831  L 239.251316 102.308422  L 240.97047 101.768013  L 241.126232 101.71905  L 242.689623 101.235761  L 244.408776 100.704322  L 246.12793 100.172882  L 246.68752 99.999897  L 247.847083 99.647295  L 249.566236 99.124532  L 251.28539 98.601769  L 252.341111 98.280743  L 253.004543 98.082247  L 254.723696 97.567882  L 256.44285 97.053516  L 258.087006 96.56159  L 258.162003 96.539506  L 259.881156 96.033273  L 261.60031 95.52704  L 263.319463 95.020807  L 263.925205 94.842437  L 265.038616 94.519677  L 266.75777 94.021324  L 268.476923 93.52297  L 268.476923 93.52297  L 266.75777 94.021324  L 265.038616 94.519677  L 263.925205 94.842437  L 263.319463 95.020807  L 261.60031 95.52704  L 259.881156 96.033273  L 258.162003 96.539506  L 258.087006 96.56159  L 256.44285 97.053516  L 254.723696 97.567882  L 253.004543 98.082247  L 252.341111 98.280743  L 251.28539 98.601769  L 249.566236 99.124532  L 247.847083 99.647295  L 246.68752 99.999897  L 246.12793 100.172882  L 244.408776 100.704322  L 242.689623 101.235761  L 241.126232 101.71905  L 240.97047 101.768013  L 239.251316 102.308422  L 237.532163 102.848831  L 235.81301 103.38924  L 235.657248 103.438203  L 234.093856 103.938086  L 232.374703 104.487772  L 230.65555 105.037459  L 230.280567 105.157357  L 228.936396 105.594652  L 227.217243 106.15394  L 225.49809 106.713228  L 224.996189 106.87651  L 223.778936 107.279556  L 222.059783 107.848787  L 220.34063 108.418018  L 219.804116 108.595663  L 218.621477 108.994336  L 216.902323 109.573869  L 215.18317 110.153403  L 214.704345 110.314817  L 213.464017 110.740644  L 211.744863 111.33086  L 210.02571 111.921076  L 209.696879 112.03397  L 208.306557 112.520256  L 206.587403 113.121556  L 204.86825 113.722857  L 204.781715 113.753123  L 203.149097 114.335086  L 201.429943 114.947894  L 199.958856 115.472277  L 199.71079 115.562427  L 197.991637 116.187193  L 196.272483 116.811958  L 195.228299 117.19143  L 194.55333 117.441605  L 192.834177 118.078804  L 191.115023 118.716003  L 190.590047 118.910583  L 189.39587 119.362188  L 187.676717 120.012325  L 186.044098 120.629737  L 185.957563 120.66314  L 184.23841 121.326751  L 182.519257 121.990362  L 181.590452 122.34889  L 180.800103 122.66043  L 179.08095 123.338085  L 177.361797 124.015741  L 177.22911 124.068043  L 175.642643 124.706918  L 173.92349 125.399226  L 172.960072 125.787197  L 172.204337 126.098259  L 170.485183 126.805866  L 168.783337 127.50635  L 168.76603 127.513635  L 167.046877 128.237233  L 165.327723 128.960831  L 164.698905 129.225503  L 163.60857 129.695041  L 161.889417 130.43537  L 160.706778 130.944657  L 160.170263 131.181167  L 158.45111 131.939019  L 156.806953 132.66381  L 156.731957 132.697672  L 155.012803 133.473896  L 153.29365 134.25012  L 152.999432 134.382963  L 151.574497 135.042328  L 149.855343 135.837837  L 149.284215 136.102117  L 148.13619 136.64688  L 146.417037 137.462657  L 145.661301 137.82127  L 144.697883 138.290385  L 142.97873 139.127489  L 142.130691 139.540423  L 141.259577 139.975981  L 139.540423 140.835557  L 138.692385 141.259577  L 137.82127 141.707149  L 136.102117 142.590438  L 135.346381 142.97873  L 134.382963 143.48777  L 132.66381 144.396117  L 132.092682 144.697883  L 130.944657 145.322174  L 129.225503 146.257042  L 128.931286 146.417037  L 127.50635 147.215215  L 125.862193 148.13619  L 125.787197 148.179502  L 124.068043 149.172346  L 122.885404 149.855343  L 122.34889 150.175106  L 120.629737 151.199721  L 120.000919 151.574497  L 118.910583 152.245819  L 117.208737 153.29365  L 117.19143 153.30467  L 115.472277 154.399345  L 114.508859 155.012803  L 113.753123 155.511053  L 112.03397 156.644478  L 111.901284 156.731957  L 110.314817 157.816285  L 109.386012 158.45111  L 108.595663 159.011881  L 106.963045 160.170263  L 106.87651 160.234093  L 105.157357 161.502182  L 104.63238 161.889417  L 103.438203 162.806594  L 102.39402 163.60857  L 101.71905 164.149271  L 100.247962 165.327723  L 99.999897 165.535374  L 98.280743 166.97444  L 98.194209 167.046877  L 96.56159 168.477819  L 96.232759 168.76603  L 94.842437 170.044783  L 94.363612 170.485183  L 93.123283 171.685242  L 92.586769 172.204337  L 91.40413 173.411276  L 90.90223 173.92349  L 89.684977 175.23777  L 89.309994 175.642643  L 87.965823 177.183269  L 87.810061 177.361797  L 86.402432 179.08095  L 86.24667 179.284534  L 85.087107 180.800103  L 84.527517 181.586697  L 83.864085 182.519257  L 82.808363 184.124384  L 82.733367 184.23841  L 81.694952 185.957563  L 81.08921 187.058241  L 80.748841 187.676717  L 79.895033 189.39587  L 79.370057 190.581044  L 79.133529 191.115023  L 78.464328 192.834177  L 77.887431 194.55333  L 77.650903 195.39244  L 77.402838 196.272483  L 77.010548 197.991637  L 76.710561 199.71079  L 76.502878 201.429943  L 76.387499 203.149097  L 76.364423 204.86825  L 76.433651 206.587403  L 76.595182 208.306557  L 76.849017 210.02571  L 77.195155 211.744863  L 77.633597 213.464017  L 77.650903 213.520076  L 78.164342 215.18317  L 78.787391 216.902323  L 79.370057 218.302601  L 79.502743 218.621477  L 80.310399 220.34063  L 81.08921 221.828359  L 81.210359 222.059783  L 82.202622 223.778936  L 82.808363 224.739102  L 83.287188 225.49809  L 84.464058 227.217243  L 84.527517 227.303201  L 85.733232 228.936396  L 86.24667 229.584721  L 87.094709 230.65555  L 87.965823 231.685677  L 88.548489 232.374703  L 89.684977 233.638409  L 90.094574 234.093856  L 91.40413 235.467968  L 91.732961 235.81301  L 93.123283 237.194063  L 93.463653 237.532163  L 94.842437 238.832409  L 95.286648 239.251316  L 96.56159 240.395693  L 97.201946 240.97047  L 98.280743 241.894268  L 99.209548 242.689623  L 99.999897 243.336667  L 101.309453 244.408776  L 101.71905 244.729987  L 103.438203 246.078165  L 103.501662 246.12793  L 105.157357 247.373882  L 105.786175 247.847083  L 106.87651 248.635724  L 108.162991 249.566236  L 108.595663 249.86749  L 110.314817 251.064471  L 110.63211 251.28539  L 112.03397 252.226278  L 113.193533 253.004543  L 113.753123 253.36706  L 115.472277 254.480773  L 115.84726 254.723696  L 117.19143 255.565215  L 118.59329 256.44285  L 118.910583 256.635032  L 120.629737 257.676307  L 121.431624 258.162003  L 122.34889 258.700085  L 124.068043 259.708564  L 124.362261 259.881156  L 125.787197 260.691521  L 127.385202 261.60031  L 127.50635 261.667166  L 129.225503 262.615884  L 130.500446 263.319463  L 130.944657 263.557547  L 132.66381 264.478964  L 133.707994 265.038616  L 134.382963 265.390261  L 136.102117 266.285904  L 137.007845 266.75777  z "
           clip-path="url(#p6e928c8729)"
           style="fill: #ffffff"
           id="path771" />
      </g>
      <g
         id="PathCollection_4">
        <path
           d="M 137.82127 267.170016  L 139.540423 268.041287  L 140.4 268.476923  L 141.259577 268.476923  L 142.97873 268.476923  L 144.697883 268.476923  L 146.417037 268.476923  L 148.13619 268.476923  L 149.855343 268.476923  L 151.574497 268.476923  L 153.29365 268.476923  L 155.012803 268.476923  L 156.731957 268.476923  L 158.45111 268.476923  L 160.170263 268.476923  L 161.889417 268.476923  L 163.60857 268.476923  L 165.327723 268.476923  L 167.046877 268.476923  L 168.76603 268.476923  L 170.485183 268.476923  L 172.204337 268.476923  L 173.92349 268.476923  L 175.642643 268.476923  L 177.361797 268.476923  L 179.08095 268.476923  L 180.800103 268.476923  L 182.519257 268.476923  L 184.23841 268.476923  L 185.957563 268.476923  L 187.676717 268.476923  L 189.39587 268.476923  L 191.115023 268.476923  L 192.834177 268.476923  L 194.55333 268.476923  L 196.272483 268.476923  L 197.991637 268.476923  L 199.71079 268.476923  L 201.429943 268.476923  L 203.149097 268.476923  L 204.86825 268.476923  L 206.587403 268.476923  L 208.306557 268.476923  L 210.02571 268.476923  L 211.744863 268.476923  L 213.464017 268.476923  L 215.18317 268.476923  L 216.902323 268.476923  L 218.621477 268.476923  L 220.34063 268.476923  L 222.059783 268.476923  L 223.778936 268.476923  L 225.49809 268.476923  L 227.217243 268.476923  L 228.936396 268.476923  L 230.65555 268.476923  L 232.374703 268.476923  L 234.093856 268.476923  L 235.81301 268.476923  L 237.532163 268.476923  L 239.251316 268.476923  L 240.97047 268.476923  L 242.689623 268.476923  L 244.408776 268.476923  L 246.12793 268.476923  L 247.847083 268.476923  L 249.566236 268.476923  L 251.28539 268.476923  L 253.004543 268.476923  L 254.723696 268.476923  L 256.44285 268.476923  L 258.162003 268.476923  L 259.881156 268.476923  L 261.60031 268.476923  L 263.319463 268.476923  L 265.038616 268.476923  L 266.75777 268.476923  L 268.476923 268.476923  L 268.476923 266.75777  L 268.476923 265.038616  L 268.476923 263.319463  L 268.476923 261.60031  L 268.476923 259.881156  L 268.476923 258.162003  L 268.476923 256.44285  L 268.476923 254.723696  L 268.476923 253.004543  L 268.476923 251.28539  L 268.476923 249.566236  L 268.476923 247.847083  L 268.476923 246.12793  L 268.476923 244.408776  L 268.476923 242.689623  L 268.476923 240.97047  L 268.476923 239.251316  L 268.476923 237.532163  L 268.476923 235.81301  L 268.476923 234.093856  L 268.476923 232.374703  L 268.476923 230.65555  L 268.476923 228.936396  L 268.476923 227.217243  L 268.476923 225.49809  L 268.476923 223.778936  L 268.476923 222.059783  L 268.476923 220.34063  L 268.476923 218.621477  L 268.476923 216.902323  L 268.476923 215.18317  L 268.476923 213.464017  L 268.476923 211.744863  L 268.476923 210.02571  L 268.476923 208.306557  L 268.476923 206.587403  L 268.476923 204.86825  L 268.476923 203.149097  L 268.476923 201.429943  L 268.476923 199.71079  L 268.476923 197.991637  L 268.476923 196.272483  L 268.476923 194.55333  L 268.476923 192.834177  L 268.476923 191.115023  L 268.476923 189.39587  L 268.476923 187.676717  L 268.476923 185.957563  L 268.476923 184.23841  L 268.476923 182.519257  L 268.476923 180.800103  L 268.476923 179.08095  L 268.476923 177.361797  L 268.476923 175.642643  L 268.476923 173.92349  L 268.476923 172.204337  L 268.476923 170.485183  L 268.476923 168.76603  L 268.476923 167.046877  L 268.476923 165.327723  L 268.476923 163.60857  L 268.476923 161.889417  L 268.476923 160.170263  L 268.476923 158.45111  L 268.476923 156.731957  L 268.476923 155.012803  L 268.476923 153.29365  L 268.476923 151.574497  L 268.476923 149.855343  L 268.476923 148.13619  L 268.476923 146.417037  L 268.476923 144.697883  L 268.476923 142.97873  L 268.476923 141.259577  L 268.476923 139.540423  L 268.476923 137.82127  L 268.476923 136.102117  L 268.476923 134.382963  L 268.476923 132.66381  L 268.476923 130.944657  L 268.476923 129.225503  L 268.476923 127.50635  L 268.476923 125.787197  L 268.476923 124.068043  L 268.476923 122.34889  L 268.476923 120.629737  L 268.476923 118.910583  L 268.476923 117.19143  L 268.476923 115.472277  L 268.476923 113.753123  L 268.476923 112.03397  L 268.476923 110.314817  L 268.476923 108.595663  L 268.476923 106.87651  L 268.476923 105.157357  L 268.476923 103.438203  L 268.476923 101.71905  L 268.476923 99.999897  L 268.476923 98.280743  L 268.476923 96.56159  L 268.476923 94.842437  L 268.476923 93.52297  L 266.75777 94.021324  L 265.038616 94.519677  L 263.925205 94.842437  L 263.319463 95.020807  L 261.60031 95.52704  L 259.881156 96.033273  L 258.162003 96.539506  L 258.087006 96.56159  L 256.44285 97.053516  L 254.723696 97.567882  L 253.004543 98.082247  L 252.341111 98.280743  L 251.28539 98.601769  L 249.566236 99.124532  L 247.847083 99.647295  L 246.68752 99.999897  L 246.12793 100.172882  L 244.408776 100.704322  L 242.689623 101.235761  L 241.126232 101.71905  L 240.97047 101.768013  L 239.251316 102.308422  L 237.532163 102.848831  L 235.81301 103.38924  L 235.657248 103.438203  L 234.093856 103.938086  L 232.374703 104.487772  L 230.65555 105.037459  L 230.280567 105.157357  L 228.936396 105.594652  L 227.217243 106.15394  L 225.49809 106.713228  L 224.996189 106.87651  L 223.778936 107.279556  L 222.059783 107.848787  L 220.34063 108.418018  L 219.804116 108.595663  L 218.621477 108.994336  L 216.902323 109.573869  L 215.18317 110.153403  L 214.704345 110.314817  L 213.464017 110.740644  L 211.744863 111.33086  L 210.02571 111.921076  L 209.696879 112.03397  L 208.306557 112.520256  L 206.587403 113.121556  L 204.86825 113.722857  L 204.781715 113.753123  L 203.149097 114.335086  L 201.429943 114.947894  L 199.958856 115.472277  L 199.71079 115.562427  L 197.991637 116.187193  L 196.272483 116.811958  L 195.228299 117.19143  L 194.55333 117.441605  L 192.834177 118.078804  L 191.115023 118.716003  L 190.590047 118.910583  L 189.39587 119.362188  L 187.676717 120.012325  L 186.044098 120.629737  L 185.957563 120.66314  L 184.23841 121.326751  L 182.519257 121.990362  L 181.590452 122.34889  L 180.800103 122.66043  L 179.08095 123.338085  L 177.361797 124.015741  L 177.22911 124.068043  L 175.642643 124.706918  L 173.92349 125.399226  L 172.960072 125.787197  L 172.204337 126.098259  L 170.485183 126.805866  L 168.783337 127.50635  L 168.76603 127.513635  L 167.046877 128.237233  L 165.327723 128.960831  L 164.698905 129.225503  L 163.60857 129.695041  L 161.889417 130.43537  L 160.706778 130.944657  L 160.170263 131.181167  L 158.45111 131.939019  L 156.806953 132.66381  L 156.731957 132.697672  L 155.012803 133.473896  L 153.29365 134.25012  L 152.999432 134.382963  L 151.574497 135.042328  L 149.855343 135.837837  L 149.284215 136.102117  L 148.13619 136.64688  L 146.417037 137.462657  L 145.661301 137.82127  L 144.697883 138.290385  L 142.97873 139.127489  L 142.130691 139.540423  L 141.259577 139.975981  L 139.540423 140.835557  L 138.692385 141.259577  L 137.82127 141.707149  L 136.102117 142.590438  L 135.346381 142.97873  L 134.382963 143.48777  L 132.66381 144.396117  L 132.092682 144.697883  L 130.944657 145.322174  L 129.225503 146.257042  L 128.931286 146.417037  L 127.50635 147.215215  L 125.862193 148.13619  L 125.787197 148.179502  L 124.068043 149.172346  L 122.885404 149.855343  L 122.34889 150.175106  L 120.629737 151.199721  L 120.000919 151.574497  L 118.910583 152.245819  L 117.208737 153.29365  L 117.19143 153.30467  L 115.472277 154.399345  L 114.508859 155.012803  L 113.753123 155.511053  L 112.03397 156.644478  L 111.901284 156.731957  L 110.314817 157.816285  L 109.386012 158.45111  L 108.595663 159.011881  L 106.963045 160.170263  L 106.87651 160.234093  L 105.157357 161.502182  L 104.63238 161.889417  L 103.438203 162.806594  L 102.39402 163.60857  L 101.71905 164.149271  L 100.247962 165.327723  L 99.999897 165.535374  L 98.280743 166.97444  L 98.194209 167.046877  L 96.56159 168.477819  L 96.232759 168.76603  L 94.842437 170.044783  L 94.363612 170.485183  L 93.123283 171.685242  L 92.586769 172.204337  L 91.40413 173.411276  L 90.90223 173.92349  L 89.684977 175.23777  L 89.309994 175.642643  L 87.965823 177.183269  L 87.810061 177.361797  L 86.402432 179.08095  L 86.24667 179.284534  L 85.087107 180.800103  L 84.527517 181.586697  L 83.864085 182.519257  L 82.808363 184.124384  L 82.733367 184.23841  L 81.694952 185.957563  L 81.08921 187.058241  L 80.748841 187.676717  L 79.895033 189.39587  L 79.370057 190.581044  L 79.133529 191.115023  L 78.464328 192.834177  L 77.887431 194.55333  L 77.650903 195.39244  L 77.402838 196.272483  L 77.010548 197.991637  L 76.710561 199.71079  L 76.502878 201.429943  L 76.387499 203.149097  L 76.364423 204.86825  L 76.433651 206.587403  L 76.595182 208.306557  L 76.849017 210.02571  L 77.195155 211.744863  L 77.633597 213.464017  L 77.650903 213.520076  L 78.164342 215.18317  L 78.787391 216.902323  L 79.370057 218.302601  L 79.502743 218.621477  L 80.310399 220.34063  L 81.08921 221.828359  L 81.210359 222.059783  L 82.202622 223.778936  L 82.808363 224.739102  L 83.287188 225.49809  L 84.464058 227.217243  L 84.527517 227.303201  L 85.733232 228.936396  L 86.24667 229.584721  L 87.094709 230.65555  L 87.965823 231.685677  L 88.548489 232.374703  L 89.684977 233.638409  L 90.094574 234.093856  L 91.40413 235.467968  L 91.732961 235.81301  L 93.123283 237.194063  L 93.463653 237.532163  L 94.842437 238.832409  L 95.286648 239.251316  L 96.56159 240.395693  L 97.201946 240.97047  L 98.280743 241.894268  L 99.209548 242.689623  L 99.999897 243.336667  L 101.309453 244.408776  L 101.71905 244.729987  L 103.438203 246.078165  L 103.501662 246.12793  L 105.157357 247.373882  L 105.786175 247.847083  L 106.87651 248.635724  L 108.162991 249.566236  L 108.595663 249.86749  L 110.314817 251.064471  L 110.63211 251.28539  L 112.03397 252.226278  L 113.193533 253.004543  L 113.753123 253.36706  L 115.472277 254.480773  L 115.84726 254.723696  L 117.19143 255.565215  L 118.59329 256.44285  L 118.910583 256.635032  L 120.629737 257.676307  L 121.431624 258.162003  L 122.34889 258.700085  L 124.068043 259.708564  L 124.362261 259.881156  L 125.787197 260.691521  L 127.385202 261.60031  L 127.50635 261.667166  L 129.225503 262.615884  L 130.500446 263.319463  L 130.944657 263.557547  L 132.66381 264.478964  L 133.707994 265.038616  L 134.382963 265.390261  L 136.102117 266.285904  L 137.007845 266.75777  L 137.82127 267.170016  z "
           clip-path="url(#p6e928c8729)"
           style="fill: none"
           id="path774" />
      </g>
      <g
         id="matplotlib.axis_1">
        <g
           id="xtick_1">
          <g
             id="line2d_1">
            <defs
               id="defs778">
              <path
                 id="m275a1a628c"
                 d="M 0 0  L 0 3.5  "
                 style="stroke: #000000; stroke-width: 0.8" />
            </defs>
            <g
               id="g782">
              <use
                 xlink:href="#m275a1a628c"
                 x="12.323077"
                 y="204.438462"
                 style="stroke: #000000; stroke-width: 0.8"
                 id="use780" />
            </g>
          </g>
        </g>
        <g
           id="xtick_2">
          <g
             id="line2d_2">
            <g
               id="g788">
              <use
                 xlink:href="#m275a1a628c"
                 x="76.361538"
                 y="204.438462"
                 style="stroke: #000000; stroke-width: 0.8"
                 id="use786" />
            </g>
          </g>
        </g>
        <g
           id="xtick_3">
          <g
             id="line2d_3">
            <g
               id="g794">
              <use
                 xlink:href="#m275a1a628c"
                 x="140.4"
                 y="204.438462"
                 style="stroke: #000000; stroke-width: 0.8"
                 id="use792" />
            </g>
          </g>
        </g>
        <g
           id="xtick_4">
          <g
             id="line2d_4">
            <g
               id="g800">
              <use
                 xlink:href="#m275a1a628c"
                 x="204.438462"
                 y="204.438462"
                 style="stroke: #000000; stroke-width: 0.8"
                 id="use798" />
            </g>
          </g>
        </g>
        <g
           id="xtick_5">
          <g
             id="line2d_5">
            <g
               id="g806">
              <use
                 xlink:href="#m275a1a628c"
                 x="268.476923"
                 y="204.438462"
                 style="stroke: #000000; stroke-width: 0.8"
                 id="use804" />
            </g>
          </g>
        </g>
      </g>
      <g
         id="matplotlib.axis_2">
        <g
           id="ytick_1">
          <g
             id="line2d_6">
            <defs
               id="defs812">
              <path
                 id="meecc8195d1"
                 d="M 0 0  L -3.5 0  "
                 style="stroke: #000000; stroke-width: 0.8" />
            </defs>
            <g
               id="g816">
              <use
                 xlink:href="#meecc8195d1"
                 x="76.361538"
                 y="268.476923"
                 style="stroke: #000000; stroke-width: 0.8"
                 id="use814" />
            </g>
          </g>
        </g>
        <g
           id="ytick_2">
          <g
             id="line2d_7">
            <g
               id="g822">
              <use
                 xlink:href="#meecc8195d1"
                 x="76.361538"
                 y="204.438462"
                 style="stroke: #000000; stroke-width: 0.8"
                 id="use820" />
            </g>
          </g>
        </g>
        <g
           id="ytick_3">
          <g
             id="line2d_8">
            <g
               id="g828">
              <use
                 xlink:href="#meecc8195d1"
                 x="76.361538"
                 y="140.4"
                 style="stroke: #000000; stroke-width: 0.8"
                 id="use826" />
            </g>
          </g>
        </g>
        <g
           id="ytick_4">
          <g
             id="line2d_9">
            <g
               id="g834">
              <use
                 xlink:href="#meecc8195d1"
                 x="76.361538"
                 y="76.361538"
                 style="stroke: #000000; stroke-width: 0.8"
                 id="use832" />
            </g>
          </g>
        </g>
        <g
           id="ytick_5">
          <g
             id="line2d_10">
            <g
               id="g840">
              <use
                 xlink:href="#meecc8195d1"
                 x="76.361538"
                 y="12.323077"
                 style="stroke: #000000; stroke-width: 0.8"
                 id="use838" />
            </g>
          </g>
        </g>
      </g>
      <g
         id="PathCollection_5">
        <path
           d="M 268.476923 93.52297  L 251.28539 98.601769  L 234.093856 103.938086  L 218.621477 108.994336  L 204.781715 113.753123  L 190.590047 118.910583  L 177.22911 124.068043  L 164.698905 129.225503  L 152.999432 134.382963  L 142.97873 139.127489  L 136.102117 142.590438  L 130.944657 145.322174  L 124.068043 149.172346  L 118.910583 152.245819  L 113.753123 155.511053  L 108.595663 159.011881  L 103.438203 162.806594  L 99.999897 165.535374  L 96.232759 168.76603  L 92.586769 172.204337  L 89.309994 175.642643  L 86.24667 179.284534  L 83.864085 182.519257  L 81.694952 185.957563  L 79.895033 189.39587  L 78.464328 192.834177  L 77.402838 196.272483  L 76.710561 199.71079  L 76.387499 203.149097  L 76.433651 206.587403  L 76.849017 210.02571  L 77.650903 213.520076  L 78.787391 216.902323  L 80.310399 220.34063  L 82.202622 223.778936  L 84.527517 227.303201  L 87.094709 230.65555  L 90.094574 234.093856  L 93.463653 237.532163  L 97.201946 240.97047  L 101.71905 244.729987  L 106.87651 248.635724  L 110.63211 251.28539  L 117.19143 255.565215  L 122.34889 258.700085  L 129.225503 262.615884  L 136.102117 266.285904  L 140.4 268.476923  L 140.4 268.476923  "
           clip-path="url(#p6e928c8729)"
           style="fill: none; stroke: #ffffff; stroke-width: 1.5"
           id="path845" />
      </g>
      <g
         id="PathCollection_6">
        <path
           d="M 268.476923 93.52297  L 251.28539 98.601769  L 234.093856 103.938086  L 218.621477 108.994336  L 204.781715 113.753123  L 190.590047 118.910583  L 177.22911 124.068043  L 164.698905 129.225503  L 152.999432 134.382963  L 142.97873 139.127489  L 136.102117 142.590438  L 130.944657 145.322174  L 124.068043 149.172346  L 118.910583 152.245819  L 113.753123 155.511053  L 108.595663 159.011881  L 103.438203 162.806594  L 99.999897 165.535374  L 96.232759 168.76603  L 92.586769 172.204337  L 89.309994 175.642643  L 86.24667 179.284534  L 83.864085 182.519257  L 81.694952 185.957563  L 79.895033 189.39587  L 78.464328 192.834177  L 77.402838 196.272483  L 76.710561 199.71079  L 76.387499 203.149097  L 76.433651 206.587403  L 76.849017 210.02571  L 77.650903 213.520076  L 78.787391 216.902323  L 80.310399 220.34063  L 82.202622 223.778936  L 84.527517 227.303201  L 87.094709 230.65555  L 90.094574 234.093856  L 93.463653 237.532163  L 97.201946 240.97047  L 101.71905 244.729987  L 106.87651 248.635724  L 110.63211 251.28539  L 117.19143 255.565215  L 122.34889 258.700085  L 129.225503 262.615884  L 136.102117 266.285904  L 140.4 268.476923  L 140.4 268.476923  "
           clip-path="url(#p6e928c8729)"
           style="fill: none; stroke: #ffffff; stroke-width: 1.5"
           id="path848" />
      </g>
      <g
         id="PathCollection_7">
        <path
           d="M 268.476923 93.52297  L 251.28539 98.601769  L 234.093856 103.938086  L 218.621477 108.994336  L 204.781715 113.753123  L 190.590047 118.910583  L 177.22911 124.068043  L 164.698905 129.225503  L 152.999432 134.382963  L 142.97873 139.127489  L 136.102117 142.590438  L 130.944657 145.322174  L 124.068043 149.172346  L 118.910583 152.245819  L 113.753123 155.511053  L 108.595663 159.011881  L 103.438203 162.806594  L 99.999897 165.535374  L 96.232759 168.76603  L 92.586769 172.204337  L 89.309994 175.642643  L 86.24667 179.284534  L 83.864085 182.519257  L 81.694952 185.957563  L 79.895033 189.39587  L 78.464328 192.834177  L 77.402838 196.272483  L 76.710561 199.71079  L 76.387499 203.149097  L 76.433651 206.587403  L 76.849017 210.02571  L 77.650903 213.520076  L 78.787391 216.902323  L 80.310399 220.34063  L 82.202622 223.778936  L 84.527517 227.303201  L 87.094709 230.65555  L 90.094574 234.093856  L 93.463653 237.532163  L 97.201946 240.97047  L 101.71905 244.729987  L 106.87651 248.635724  L 110.63211 251.28539  L 117.19143 255.565215  L 122.34889 258.700085  L 129.225503 262.615884  L 136.102117 266.285904  L 140.4 268.476923  L 140.4 268.476923  "
           clip-path="url(#p6e928c8729)"
           style="fill: none; stroke: #ffffff; stroke-width: 1.5"
           id="path851" />
      </g>
      <g
         id="PathCollection_8">
        <path
           d="M 268.476923 93.52297  L 251.28539 98.601769  L 234.093856 103.938086  L 218.621477 108.994336  L 204.781715 113.753123  L 190.590047 118.910583  L 177.22911 124.068043  L 164.698905 129.225503  L 152.999432 134.382963  L 142.97873 139.127489  L 136.102117 142.590438  L 130.944657 145.322174  L 124.068043 149.172346  L 118.910583 152.245819  L 113.753123 155.511053  L 108.595663 159.011881  L 103.438203 162.806594  L 99.999897 165.535374  L 96.232759 168.76603  L 92.586769 172.204337  L 89.309994 175.642643  L 86.24667 179.284534  L 83.864085 182.519257  L 81.694952 185.957563  L 79.895033 189.39587  L 78.464328 192.834177  L 77.402838 196.272483  L 76.710561 199.71079  L 76.387499 203.149097  L 76.433651 206.587403  L 76.849017 210.02571  L 77.650903 213.520076  L 78.787391 216.902323  L 80.310399 220.34063  L 82.202622 223.778936  L 84.527517 227.303201  L 87.094709 230.65555  L 90.094574 234.093856  L 93.463653 237.532163  L 97.201946 240.97047  L 101.71905 244.729987  L 106.87651 248.635724  L 110.63211 251.28539  L 117.19143 255.565215  L 122.34889 258.700085  L 129.225503 262.615884  L 136.102117 266.285904  L 140.4 268.476923  L 140.4 268.476923  "
           clip-path="url(#p6e928c8729)"
           style="fill: none; stroke: #0000ff; stroke-width: 2"
           id="path854" />
      </g>
      <g
         id="patch_3">
        <path
           d="M 76.361538 273.6  L 76.361538 7.2  "
           style="fill: none; stroke: #000000; stroke-width: 0.8; stroke-linejoin: miter; stroke-linecap: square"
           id="path857" />
      </g>
      <g
         id="patch_4">
        <path
           d="M 7.2 204.438462  L 273.6 204.438462  "
           style="fill: none; stroke: #000000; stroke-width: 0.8; stroke-linejoin: miter; stroke-linecap: square"
           id="path860" />
      </g>
    </g>
  </g>
  <defs
     id="defs868">
    <clipPath
       id="p6e928c8729">
      <rect
         x="7.2"
         y="7.2"
         width="266.4"
         height="266.4"
         id="rect865" />
    </clipPath>
  </defs>
</svg>
