<?xml version="1.0" encoding="UTF-8" standalone="no"?>
<svg
   width="280.8pt"
   height="280.8pt"
   viewBox="0 0 280.8 280.8"
   version="1.1"
   id="svg129"
   sodipodi:docname="square.svg"
   inkscape:export-filename="../6c052440/square.pdf"
   inkscape:export-xdpi="96"
   inkscape:export-ydpi="96"
   inkscape:version="1.2.2 (732a01da63, 2022-12-09, custom)"
   xmlns:inkscape="http://www.inkscape.org/namespaces/inkscape"
   xmlns:sodipodi="http://sodipodi.sourceforge.net/DTD/sodipodi-0.dtd"
   xmlns:xlink="http://www.w3.org/1999/xlink"
   xmlns="http://www.w3.org/2000/svg"
   xmlns:svg="http://www.w3.org/2000/svg"
   xmlns:rdf="http://www.w3.org/1999/02/22-rdf-syntax-ns#"
   xmlns:cc="http://creativecommons.org/ns#"
   xmlns:dc="http://purl.org/dc/elements/1.1/">
  <sodipodi:namedview
     id="namedview131"
     pagecolor="#ffffff"
     bordercolor="#666666"
     borderopacity="1.0"
     inkscape:showpageshadow="2"
     inkscape:pageopacity="0.0"
     inkscape:pagecheckerboard="0"
     inkscape:deskcolor="#d1d1d1"
     inkscape:document-units="pt"
     showgrid="false"
     inkscape:zoom="2.2702992"
     inkscape:cx="187.19999"
     inkscape:cy="293.13316"
     inkscape:window-width="1452"
     inkscape:window-height="752"
     inkscape:window-x="244"
     inkscape:window-y="134"
     inkscape:window-maximized="0"
     inkscape:current-layer="svg129" />
  <metadata
     id="metadata18">
    <rdf:RDF>
      <cc:Work>
        <dc:type
           rdf:resource="http://purl.org/dc/dcmitype/StillImage" />
        <dc:date>2023-08-21T17:47:00.812627</dc:date>
        <dc:format>image/svg+xml</dc:format>
        <dc:creator>
          <cc:Agent>
            <dc:title>Matplotlib v3.6.2, https://matplotlib.org/</dc:title>
          </cc:Agent>
        </dc:creator>
      </cc:Work>
    </rdf:RDF>
  </metadata>
  <defs
     id="defs22">
    <style
       type="text/css"
       id="style20">*{stroke-linejoin: round; stroke-linecap: butt}</style>
  </defs>
  <g
     id="figure_1">
    <g
       id="patch_1">
      <path
         d="M 0 280.8  L 280.8 280.8  L 280.8 0  L 0 0  z "
         style="fill: #ffffff"
         id="path24" />
    </g>
    <g
       id="axes_1">
      <g
         id="patch_2">
        <path
           d="M 7.2 273.6  L 273.6 273.6  L 273.6 7.2  L 7.2 7.2  z "
           style="fill: #ffffff"
           id="path27" />
      </g>
      <g
         id="PathCollection_1">
        <path
           d="M 132.66381 203.503888  L 134.382963 203.873102  L 136.102117 204.150013  L 137.82127 204.33462  L 139.540423 204.426924  L 141.259577 204.426924  L 142.97873 204.33462  L 144.697883 204.150013  L 146.417037 203.873102  L 148.13619 203.503888  L 149.457789 203.149097  L 149.855343 203.042371  L 151.574497 202.488549  L 153.29365 201.842425  L 154.253958 201.429943  L 155.012803 201.103996  L 156.731957 200.273265  L 157.779566 199.71079  L 158.45111 199.350229  L 160.170263 198.33489  L 160.703022 197.991637  L 161.889417 197.227248  L 163.257301 196.272483  L 163.60857 196.027302  L 165.327723 194.735052  L 165.553362 194.55333  L 167.046877 193.350499  L 167.647909 192.834177  L 168.76603 191.873643  L 169.597165 191.115023  L 170.485183 190.304483  L 171.425345 189.39587  L 172.204337 188.643019  L 173.151567 187.676717  L 173.92349 186.889252  L 174.791125 185.957563  L 175.642643 185.043181  L 176.356399 184.23841  L 177.361797 183.104807  L 177.857518 182.519257  L 179.08095 181.074129  L 179.302852 180.800103  L 180.694992 179.08095  L 180.800103 178.951148  L 182.033506 177.361797  L 182.519257 176.735863  L 183.333705 175.642643  L 184.23841 174.428275  L 184.600011 173.92349  L 185.83152 172.204337  L 185.957563 172.028383  L 187.022085 170.485183  L 187.676717 169.536188  L 188.189009 168.76603  L 189.332553 167.046877  L 189.39587 166.951689  L 190.438848 165.327723  L 191.115023 164.274886  L 191.528695 163.60857  L 192.596002 161.889417  L 192.834177 161.50578  L 193.636564 160.170263  L 194.55333 158.64437  L 194.665814 158.45111  L 195.666415 156.731957  L 196.272483 155.690657  L 196.65506 155.012803  L 197.62534 153.29365  L 197.991637 152.644641  L 198.577855 151.574497  L 199.519597 149.855343  L 199.71079 149.506321  L 200.439895 148.13619  L 201.35473 146.417037  L 201.429943 146.275697  L 202.246243 144.697883  L 203.135666 142.97873  L 203.149097 142.95277  L 204.001413 141.259577  L 204.866798 139.540423  L 204.86825 139.537539  L 205.709447 137.82127  L 206.552059 136.102117  L 206.587403 136.030005  L 207.373971 134.382963  L 208.194977 132.66381  L 208.306557 132.430167  L 208.998247 130.944657  L 209.798728 129.225503  L 210.02571 128.738025  L 210.585221 127.50635  L 211.366178 125.787197  L 211.744863 124.95358  L 212.137557 124.068043  L 212.899919 122.34889  L 213.464017 121.076832  L 213.657671 120.629737  L 214.402304 118.910583  L 215.146938 117.19143  L 215.18317 117.10778  L 215.875471 115.472277  L 216.603181 113.753123  L 216.902323 113.046424  L 217.321367 112.03397  L 218.032905 110.314817  L 218.621477 108.892765  L 218.741771 108.595663  L 219.437841 106.87651  L 220.133911 105.157357  L 220.34063 104.646803  L 220.819569 103.438203  L 221.50083 101.71905  L 222.059783 100.308537  L 222.179542 99.999897  L 222.846609 98.280743  L 223.513677 96.56159  L 223.778936 95.877967  L 224.172544 94.842437  L 224.825997 93.123283  L 225.479451 91.40413  L 225.49809 91.355094  L 226.120208 89.684977  L 226.760593 87.965823  L 227.217243 86.739917  L 227.397375 86.24667  L 228.025203 84.527517  L 228.653031 82.808363  L 228.936396 82.032437  L 229.274235 81.08921  L 229.889989 79.370057  L 230.505744 77.650903  L 230.65555 77.232653  L 231.112707 75.93175  L 231.716843 74.212597  L 232.32098 72.493443  L 232.374703 72.340566  L 232.914923 70.77429  L 233.507872 69.055137  L 234.093856 67.356175  L 234.100694 67.335983  L 234.682862 65.61683  L 235.26503 63.897677  L 235.81301 62.27948  L 235.846587 62.178523  L 236.418359 60.45937  L 236.990131 58.740217  L 237.532163 57.110483  L 237.561381 57.021064  L 238.123122 55.30191  L 238.684863 53.582757  L 239.246604 51.863604  L 239.251316 51.849181  L 239.798741 50.14445  L 240.350797 48.425297  L 240.902852 46.706144  L 240.97047 46.495576  L 241.446697 44.98699  L 241.989396 43.267837  L 242.532095 41.548684  L 242.689623 41.049668  L 243.068374 39.82953  L 243.602028 38.110377  L 244.135682 36.391224  L 244.408776 35.511455  L 244.665064 34.67207  L 245.18997 32.952917  L 245.714875 31.233764  L 246.12793 29.88094  L 246.237976 29.51461  L 246.754416 27.795457  L 247.270855 26.076304  L 247.787294 24.35715  L 247.847083 24.158121  L 248.296485 22.637997  L 248.804727 20.918844  L 249.312968 19.19969  L 249.566236 18.342998  L 249.817226 17.480537  L 250.317527 15.761384  L 250.817827 14.04223  L 251.28539 12.435572  L 251.317624 12.323077  L 251.28539 12.323077  L 249.566236 12.323077  L 247.847083 12.323077  L 246.12793 12.323077  L 244.408776 12.323077  L 242.689623 12.323077  L 240.97047 12.323077  L 239.251316 12.323077  L 237.532163 12.323077  L 235.81301 12.323077  L 234.093856 12.323077  L 232.374703 12.323077  L 230.65555 12.323077  L 228.936396 12.323077  L 227.217243 12.323077  L 225.49809 12.323077  L 223.778936 12.323077  L 222.059783 12.323077  L 220.34063 12.323077  L 218.621477 12.323077  L 216.902323 12.323077  L 215.18317 12.323077  L 213.464017 12.323077  L 211.744863 12.323077  L 210.02571 12.323077  L 208.306557 12.323077  L 206.587403 12.323077  L 204.86825 12.323077  L 203.149097 12.323077  L 201.429943 12.323077  L 199.71079 12.323077  L 197.991637 12.323077  L 196.272483 12.323077  L 194.55333 12.323077  L 192.834177 12.323077  L 191.115023 12.323077  L 189.39587 12.323077  L 187.676717 12.323077  L 185.957563 12.323077  L 184.23841 12.323077  L 182.519257 12.323077  L 180.800103 12.323077  L 179.08095 12.323077  L 177.361797 12.323077  L 175.642643 12.323077  L 173.92349 12.323077  L 172.204337 12.323077  L 170.485183 12.323077  L 168.76603 12.323077  L 167.046877 12.323077  L 165.327723 12.323077  L 163.60857 12.323077  L 161.889417 12.323077  L 160.170263 12.323077  L 158.45111 12.323077  L 156.731957 12.323077  L 155.012803 12.323077  L 153.29365 12.323077  L 151.574497 12.323077  L 149.855343 12.323077  L 148.13619 12.323077  L 146.417037 12.323077  L 144.697883 12.323077  L 142.97873 12.323077  L 141.259577 12.323077  L 139.540423 12.323077  L 137.82127 12.323077  L 136.102117 12.323077  L 134.382963 12.323077  L 132.66381 12.323077  L 130.944657 12.323077  L 129.225503 12.323077  L 127.50635 12.323077  L 125.787197 12.323077  L 124.068043 12.323077  L 122.34889 12.323077  L 120.629737 12.323077  L 118.910583 12.323077  L 117.19143 12.323077  L 115.472277 12.323077  L 113.753123 12.323077  L 112.03397 12.323077  L 110.314817 12.323077  L 108.595663 12.323077  L 106.87651 12.323077  L 105.157357 12.323077  L 103.438203 12.323077  L 101.71905 12.323077  L 99.999897 12.323077  L 98.280743 12.323077  L 96.56159 12.323077  L 94.842437 12.323077  L 93.123283 12.323077  L 91.40413 12.323077  L 89.684977 12.323077  L 87.965823 12.323077  L 86.24667 12.323077  L 84.527517 12.323077  L 82.808363 12.323077  L 81.08921 12.323077  L 79.370057 12.323077  L 77.650903 12.323077  L 75.93175 12.323077  L 74.212597 12.323077  L 72.493443 12.323077  L 70.77429 12.323077  L 69.055137 12.323077  L 67.335983 12.323077  L 65.61683 12.323077  L 63.897677 12.323077  L 62.178523 12.323077  L 60.45937 12.323077  L 58.740217 12.323077  L 57.021064 12.323077  L 55.30191 12.323077  L 53.582757 12.323077  L 51.863604 12.323077  L 50.14445 12.323077  L 48.425297 12.323077  L 46.706144 12.323077  L 44.98699 12.323077  L 43.267837 12.323077  L 41.548684 12.323077  L 39.82953 12.323077  L 38.110377 12.323077  L 36.391224 12.323077  L 34.67207 12.323077  L 32.952917 12.323077  L 31.233764 12.323077  L 29.51461 12.323077  L 29.482376 12.323077  L 29.51461 12.435572  L 29.982173 14.04223  L 30.482473 15.761384  L 30.982774 17.480537  L 31.233764 18.342998  L 31.487032 19.19969  L 31.995273 20.918844  L 32.503515 22.637997  L 32.952917 24.158121  L 33.012706 24.35715  L 33.529145 26.076304  L 34.045584 27.795457  L 34.562024 29.51461  L 34.67207 29.88094  L 35.085125 31.233764  L 35.61003 32.952917  L 36.134936 34.67207  L 36.391224 35.511455  L 36.664318 36.391224  L 37.197972 38.110377  L 37.731626 39.82953  L 38.110377 41.049668  L 38.267905 41.548684  L 38.810604 43.267837  L 39.353303 44.98699  L 39.82953 46.495576  L 39.897148 46.706144  L 40.449203 48.425297  L 41.001259 50.14445  L 41.548684 51.849181  L 41.553396 51.863604  L 42.115137 53.582757  L 42.676878 55.30191  L 43.238619 57.021064  L 43.267837 57.110483  L 43.809869 58.740217  L 44.381641 60.45937  L 44.953413 62.178523  L 44.98699 62.27948  L 45.53497 63.897677  L 46.117138 65.61683  L 46.699306 67.335983  L 46.706144 67.356175  L 47.292128 69.055137  L 47.885077 70.77429  L 48.425297 72.340566  L 48.47902 72.493443  L 49.083157 74.212597  L 49.687293 75.93175  L 50.14445 77.232653  L 50.294256 77.650903  L 50.910011 79.370057  L 51.525765 81.08921  L 51.863604 82.032437  L 52.146969 82.808363  L 52.774797 84.527517  L 53.402625 86.24667  L 53.582757 86.739917  L 54.039407 87.965823  L 54.679792 89.684977  L 55.30191 91.355094  L 55.320549 91.40413  L 55.974003 93.123283  L 56.627456 94.842437  L 57.021064 95.877967  L 57.286323 96.56159  L 57.953391 98.280743  L 58.620458 99.999897  L 58.740217 100.308537  L 59.29917 101.71905  L 59.980431 103.438203  L 60.45937 104.646803  L 60.666089 105.157357  L 61.362159 106.87651  L 62.058229 108.595663  L 62.178523 108.892765  L 62.767095 110.314817  L 63.478633 112.03397  L 63.897677 113.046424  L 64.196819 113.753123  L 64.924529 115.472277  L 65.61683 117.10778  L 65.653062 117.19143  L 66.397696 118.910583  L 67.142329 120.629737  L 67.335983 121.076832  L 67.900081 122.34889  L 68.662443 124.068043  L 69.055137 124.95358  L 69.433822 125.787197  L 70.214779 127.50635  L 70.77429 128.738025  L 71.001272 129.225503  L 71.801753 130.944657  L 72.493443 132.430167  L 72.605023 132.66381  L 73.426029 134.382963  L 74.212597 136.030005  L 74.247941 136.102117  L 75.090553 137.82127  L 75.93175 139.537539  L 75.933202 139.540423  L 76.798587 141.259577  L 77.650903 142.95277  L 77.664334 142.97873  L 78.553757 144.697883  L 79.370057 146.275697  L 79.44527 146.417037  L 80.360105 148.13619  L 81.08921 149.506321  L 81.280403 149.855343  L 82.222145 151.574497  L 82.808363 152.644641  L 83.17466 153.29365  L 84.14494 155.012803  L 84.527517 155.690657  L 85.133585 156.731957  L 86.134186 158.45111  L 86.24667 158.64437  L 87.163436 160.170263  L 87.965823 161.50578  L 88.203998 161.889417  L 89.271305 163.60857  L 89.684977 164.274886  L 90.361152 165.327723  L 91.40413 166.951689  L 91.467447 167.046877  L 92.610991 168.76603  L 93.123283 169.536188  L 93.777915 170.485183  L 94.842437 172.028383  L 94.96848 172.204337  L 96.199989 173.92349  L 96.56159 174.428275  L 97.466295 175.642643  L 98.280743 176.735863  L 98.766494 177.361797  L 99.999897 178.951148  L 100.105008 179.08095  L 101.497148 180.800103  L 101.71905 181.074129  L 102.942482 182.519257  L 103.438203 183.104807  L 104.443601 184.23841  L 105.157357 185.043181  L 106.008875 185.957563  L 106.87651 186.889252  L 107.648433 187.676717  L 108.595663 188.643019  L 109.374655 189.39587  L 110.314817 190.304483  L 111.202835 191.115023  L 112.03397 191.873643  L 113.152091 192.834177  L 113.753123 193.350499  L 115.246638 194.55333  L 115.472277 194.735052  L 117.19143 196.027302  L 117.542699 196.272483  L 118.910583 197.227248  L 120.096978 197.991637  L 120.629737 198.33489  L 122.34889 199.350229  L 123.020434 199.71079  L 124.068043 200.273265  L 125.787197 201.103996  L 126.546042 201.429943  L 127.50635 201.842425  L 129.225503 202.488549  L 130.944657 203.042371  L 131.342211 203.149097  z "
           clip-path="url(#pe6626776b1)"
           style="fill: #ffffff"
           id="path30" />
      </g>
      <g
         id="PathCollection_2">
        <path
           d="M 132.66381 203.503888  L 134.382963 203.873102  L 136.102117 204.150013  L 137.82127 204.33462  L 139.540423 204.426924  L 141.259577 204.426924  L 142.97873 204.33462  L 144.697883 204.150013  L 146.417037 203.873102  L 148.13619 203.503888  L 149.457789 203.149097  L 149.855343 203.042371  L 151.574497 202.488549  L 153.29365 201.842425  L 154.253958 201.429943  L 155.012803 201.103996  L 156.731957 200.273265  L 157.779566 199.71079  L 158.45111 199.350229  L 160.170263 198.33489  L 160.703022 197.991637  L 161.889417 197.227248  L 163.257301 196.272483  L 163.60857 196.027302  L 165.327723 194.735052  L 165.553362 194.55333  L 167.046877 193.350499  L 167.647909 192.834177  L 168.76603 191.873643  L 169.597165 191.115023  L 170.485183 190.304483  L 171.425345 189.39587  L 172.204337 188.643019  L 173.151567 187.676717  L 173.92349 186.889252  L 174.791125 185.957563  L 175.642643 185.043181  L 176.356399 184.23841  L 177.361797 183.104807  L 177.857518 182.519257  L 179.08095 181.074129  L 179.302852 180.800103  L 180.694992 179.08095  L 180.800103 178.951148  L 182.033506 177.361797  L 182.519257 176.735863  L 183.333705 175.642643  L 184.23841 174.428275  L 184.600011 173.92349  L 185.83152 172.204337  L 185.957563 172.028383  L 187.022085 170.485183  L 187.676717 169.536188  L 188.189009 168.76603  L 189.332553 167.046877  L 189.39587 166.951689  L 190.438848 165.327723  L 191.115023 164.274886  L 191.528695 163.60857  L 192.596002 161.889417  L 192.834177 161.50578  L 193.636564 160.170263  L 194.55333 158.64437  L 194.665814 158.45111  L 195.666415 156.731957  L 196.272483 155.690657  L 196.65506 155.012803  L 197.62534 153.29365  L 197.991637 152.644641  L 198.577855 151.574497  L 199.519597 149.855343  L 199.71079 149.506321  L 200.439895 148.13619  L 201.35473 146.417037  L 201.429943 146.275697  L 202.246243 144.697883  L 203.135666 142.97873  L 203.149097 142.95277  L 204.001413 141.259577  L 204.866798 139.540423  L 204.86825 139.537539  L 205.709447 137.82127  L 206.552059 136.102117  L 206.587403 136.030005  L 207.373971 134.382963  L 208.194977 132.66381  L 208.306557 132.430167  L 208.998247 130.944657  L 209.798728 129.225503  L 210.02571 128.738025  L 210.585221 127.50635  L 211.366178 125.787197  L 211.744863 124.95358  L 212.137557 124.068043  L 212.899919 122.34889  L 213.464017 121.076832  L 213.657671 120.629737  L 214.402304 118.910583  L 215.146938 117.19143  L 215.18317 117.10778  L 215.875471 115.472277  L 216.603181 113.753123  L 216.902323 113.046424  L 217.321367 112.03397  L 218.032905 110.314817  L 218.621477 108.892765  L 218.741771 108.595663  L 219.437841 106.87651  L 220.133911 105.157357  L 220.34063 104.646803  L 220.819569 103.438203  L 221.50083 101.71905  L 222.059783 100.308537  L 222.179542 99.999897  L 222.846609 98.280743  L 223.513677 96.56159  L 223.778936 95.877967  L 224.172544 94.842437  L 224.825997 93.123283  L 225.479451 91.40413  L 225.49809 91.355094  L 226.120208 89.684977  L 226.760593 87.965823  L 227.217243 86.739917  L 227.397375 86.24667  L 228.025203 84.527517  L 228.653031 82.808363  L 228.936396 82.032437  L 229.274235 81.08921  L 229.889989 79.370057  L 230.505744 77.650903  L 230.65555 77.232653  L 231.112707 75.93175  L 231.716843 74.212597  L 232.32098 72.493443  L 232.374703 72.340566  L 232.914923 70.77429  L 233.507872 69.055137  L 234.093856 67.356175  L 234.100694 67.335983  L 234.682862 65.61683  L 235.26503 63.897677  L 235.81301 62.27948  L 235.846587 62.178523  L 236.418359 60.45937  L 236.990131 58.740217  L 237.532163 57.110483  L 237.561381 57.021064  L 238.123122 55.30191  L 238.684863 53.582757  L 239.246604 51.863604  L 239.251316 51.849181  L 239.798741 50.14445  L 240.350797 48.425297  L 240.902852 46.706144  L 240.97047 46.495576  L 241.446697 44.98699  L 241.989396 43.267837  L 242.532095 41.548684  L 242.689623 41.049668  L 243.068374 39.82953  L 243.602028 38.110377  L 244.135682 36.391224  L 244.408776 35.511455  L 244.665064 34.67207  L 245.18997 32.952917  L 245.714875 31.233764  L 246.12793 29.88094  L 246.237976 29.51461  L 246.754416 27.795457  L 247.270855 26.076304  L 247.787294 24.35715  L 247.847083 24.158121  L 248.296485 22.637997  L 248.804727 20.918844  L 249.312968 19.19969  L 249.566236 18.342998  L 249.817226 17.480537  L 250.317527 15.761384  L 250.817827 14.04223  L 251.28539 12.435572  L 251.317624 12.323077  L 251.317624 12.323077  L 251.28539 12.435572  L 250.817827 14.04223  L 250.317527 15.761384  L 249.817226 17.480537  L 249.566236 18.342998  L 249.312968 19.19969  L 248.804727 20.918844  L 248.296485 22.637997  L 247.847083 24.158121  L 247.787294 24.35715  L 247.270855 26.076304  L 246.754416 27.795457  L 246.237976 29.51461  L 246.12793 29.88094  L 245.714875 31.233764  L 245.18997 32.952917  L 244.665064 34.67207  L 244.408776 35.511455  L 244.135682 36.391224  L 243.602028 38.110377  L 243.068374 39.82953  L 242.689623 41.049668  L 242.532095 41.548684  L 241.989396 43.267837  L 241.446697 44.98699  L 240.97047 46.495576  L 240.902852 46.706144  L 240.350797 48.425297  L 239.798741 50.14445  L 239.251316 51.849181  L 239.246604 51.863604  L 238.684863 53.582757  L 238.123122 55.30191  L 237.561381 57.021064  L 237.532163 57.110483  L 236.990131 58.740217  L 236.418359 60.45937  L 235.846587 62.178523  L 235.81301 62.27948  L 235.26503 63.897677  L 234.682862 65.61683  L 234.100694 67.335983  L 234.093856 67.356175  L 233.507872 69.055137  L 232.914923 70.77429  L 232.374703 72.340566  L 232.32098 72.493443  L 231.716843 74.212597  L 231.112707 75.93175  L 230.65555 77.232653  L 230.505744 77.650903  L 229.889989 79.370057  L 229.274235 81.08921  L 228.936396 82.032437  L 228.653031 82.808363  L 228.025203 84.527517  L 227.397375 86.24667  L 227.217243 86.739917  L 226.760593 87.965823  L 226.120208 89.684977  L 225.49809 91.355094  L 225.479451 91.40413  L 224.825997 93.123283  L 224.172544 94.842437  L 223.778936 95.877967  L 223.513677 96.56159  L 222.846609 98.280743  L 222.179542 99.999897  L 222.059783 100.308537  L 221.50083 101.71905  L 220.819569 103.438203  L 220.34063 104.646803  L 220.133911 105.157357  L 219.437841 106.87651  L 218.741771 108.595663  L 218.621477 108.892765  L 218.032905 110.314817  L 217.321367 112.03397  L 216.902323 113.046424  L 216.603181 113.753123  L 215.875471 115.472277  L 215.18317 117.10778  L 215.146938 117.19143  L 214.402304 118.910583  L 213.657671 120.629737  L 213.464017 121.076832  L 212.899919 122.34889  L 212.137557 124.068043  L 211.744863 124.95358  L 211.366178 125.787197  L 210.585221 127.50635  L 210.02571 128.738025  L 209.798728 129.225503  L 208.998247 130.944657  L 208.306557 132.430167  L 208.194977 132.66381  L 207.373971 134.382963  L 206.587403 136.030005  L 206.552059 136.102117  L 205.709447 137.82127  L 204.86825 139.537539  L 204.866798 139.540423  L 204.001413 141.259577  L 203.149097 142.95277  L 203.135666 142.97873  L 202.246243 144.697883  L 201.429943 146.275697  L 201.35473 146.417037  L 200.439895 148.13619  L 199.71079 149.506321  L 199.519597 149.855343  L 198.577855 151.574497  L 197.991637 152.644641  L 197.62534 153.29365  L 196.65506 155.012803  L 196.272483 155.690657  L 195.666415 156.731957  L 194.665814 158.45111  L 194.55333 158.64437  L 193.636564 160.170263  L 192.834177 161.50578  L 192.596002 161.889417  L 191.528695 163.60857  L 191.115023 164.274886  L 190.438848 165.327723  L 189.39587 166.951689  L 189.332553 167.046877  L 188.189009 168.76603  L 187.676717 169.536188  L 187.022085 170.485183  L 185.957563 172.028383  L 185.83152 172.204337  L 184.600011 173.92349  L 184.23841 174.428275  L 183.333705 175.642643  L 182.519257 176.735863  L 182.033506 177.361797  L 180.800103 178.951148  L 180.694992 179.08095  L 179.302852 180.800103  L 179.08095 181.074129  L 177.857518 182.519257  L 177.361797 183.104807  L 176.356399 184.23841  L 175.642643 185.043181  L 174.791125 185.957563  L 173.92349 186.889252  L 173.151567 187.676717  L 172.204337 188.643019  L 171.425345 189.39587  L 170.485183 190.304483  L 169.597165 191.115023  L 168.76603 191.873643  L 167.647909 192.834177  L 167.046877 193.350499  L 165.553362 194.55333  L 165.327723 194.735052  L 163.60857 196.027302  L 163.257301 196.272483  L 161.889417 197.227248  L 160.703022 197.991637  L 160.170263 198.33489  L 158.45111 199.350229  L 157.779566 199.71079  L 156.731957 200.273265  L 155.012803 201.103996  L 154.253958 201.429943  L 153.29365 201.842425  L 151.574497 202.488549  L 149.855343 203.042371  L 149.457789 203.149097  L 148.13619 203.503888  L 146.417037 203.873102  L 144.697883 204.150013  L 142.97873 204.33462  L 141.259577 204.426924  L 139.540423 204.426924  L 137.82127 204.33462  L 136.102117 204.150013  L 134.382963 203.873102  L 132.66381 203.503888  L 131.342211 203.149097  L 130.944657 203.042371  L 129.225503 202.488549  L 127.50635 201.842425  L 126.546042 201.429943  L 125.787197 201.103996  L 124.068043 200.273265  L 123.020434 199.71079  L 122.34889 199.350229  L 120.629737 198.33489  L 120.096978 197.991637  L 118.910583 197.227248  L 117.542699 196.272483  L 117.19143 196.027302  L 115.472277 194.735052  L 115.246638 194.55333  L 113.753123 193.350499  L 113.152091 192.834177  L 112.03397 191.873643  L 111.202835 191.115023  L 110.314817 190.304483  L 109.374655 189.39587  L 108.595663 188.643019  L 107.648433 187.676717  L 106.87651 186.889252  L 106.008875 185.957563  L 105.157357 185.043181  L 104.443601 184.23841  L 103.438203 183.104807  L 102.942482 182.519257  L 101.71905 181.074129  L 101.497148 180.800103  L 100.105008 179.08095  L 99.999897 178.951148  L 98.766494 177.361797  L 98.280743 176.735863  L 97.466295 175.642643  L 96.56159 174.428275  L 96.199989 173.92349  L 94.96848 172.204337  L 94.842437 172.028383  L 93.777915 170.485183  L 93.123283 169.536188  L 92.610991 168.76603  L 91.467447 167.046877  L 91.40413 166.951689  L 90.361152 165.327723  L 89.684977 164.274886  L 89.271305 163.60857  L 88.203998 161.889417  L 87.965823 161.50578  L 87.163436 160.170263  L 86.24667 158.64437  L 86.134186 158.45111  L 85.133585 156.731957  L 84.527517 155.690657  L 84.14494 155.012803  L 83.17466 153.29365  L 82.808363 152.644641  L 82.222145 151.574497  L 81.280403 149.855343  L 81.08921 149.506321  L 80.360105 148.13619  L 79.44527 146.417037  L 79.370057 146.275697  L 78.553757 144.697883  L 77.664334 142.97873  L 77.650903 142.95277  L 76.798587 141.259577  L 75.933202 139.540423  L 75.93175 139.537539  L 75.090553 137.82127  L 74.247941 136.102117  L 74.212597 136.030005  L 73.426029 134.382963  L 72.605023 132.66381  L 72.493443 132.430167  L 71.801753 130.944657  L 71.001272 129.225503  L 70.77429 128.738025  L 70.214779 127.50635  L 69.433822 125.787197  L 69.055137 124.95358  L 68.662443 124.068043  L 67.900081 122.34889  L 67.335983 121.076832  L 67.142329 120.629737  L 66.397696 118.910583  L 65.653062 117.19143  L 65.61683 117.10778  L 64.924529 115.472277  L 64.196819 113.753123  L 63.897677 113.046424  L 63.478633 112.03397  L 62.767095 110.314817  L 62.178523 108.892765  L 62.058229 108.595663  L 61.362159 106.87651  L 60.666089 105.157357  L 60.45937 104.646803  L 59.980431 103.438203  L 59.29917 101.71905  L 58.740217 100.308537  L 58.620458 99.999897  L 57.953391 98.280743  L 57.286323 96.56159  L 57.021064 95.877967  L 56.627456 94.842437  L 55.974003 93.123283  L 55.320549 91.40413  L 55.30191 91.355094  L 54.679792 89.684977  L 54.039407 87.965823  L 53.582757 86.739917  L 53.402625 86.24667  L 52.774797 84.527517  L 52.146969 82.808363  L 51.863604 82.032437  L 51.525765 81.08921  L 50.910011 79.370057  L 50.294256 77.650903  L 50.14445 77.232653  L 49.687293 75.93175  L 49.083157 74.212597  L 48.47902 72.493443  L 48.425297 72.340566  L 47.885077 70.77429  L 47.292128 69.055137  L 46.706144 67.356175  L 46.699306 67.335983  L 46.117138 65.61683  L 45.53497 63.897677  L 44.98699 62.27948  L 44.953413 62.178523  L 44.381641 60.45937  L 43.809869 58.740217  L 43.267837 57.110483  L 43.238619 57.021064  L 42.676878 55.30191  L 42.115137 53.582757  L 41.553396 51.863604  L 41.548684 51.849181  L 41.001259 50.14445  L 40.449203 48.425297  L 39.897148 46.706144  L 39.82953 46.495576  L 39.353303 44.98699  L 38.810604 43.267837  L 38.267905 41.548684  L 38.110377 41.049668  L 37.731626 39.82953  L 37.197972 38.110377  L 36.664318 36.391224  L 36.391224 35.511455  L 36.134936 34.67207  L 35.61003 32.952917  L 35.085125 31.233764  L 34.67207 29.88094  L 34.562024 29.51461  L 34.045584 27.795457  L 33.529145 26.076304  L 33.012706 24.35715  L 32.952917 24.158121  L 32.503515 22.637997  L 31.995273 20.918844  L 31.487032 19.19969  L 31.233764 18.342998  L 30.982774 17.480537  L 30.482473 15.761384  L 29.982173 14.04223  L 29.51461 12.435572  L 29.482376 12.323077  L 29.482376 12.323077  L 29.51461 12.435572  L 29.982173 14.04223  L 30.482473 15.761384  L 30.982774 17.480537  L 31.233764 18.342998  L 31.487032 19.19969  L 31.995273 20.918844  L 32.503515 22.637997  L 32.952917 24.158121  L 33.012706 24.35715  L 33.529145 26.076304  L 34.045584 27.795457  L 34.562024 29.51461  L 34.67207 29.88094  L 35.085125 31.233764  L 35.61003 32.952917  L 36.134936 34.67207  L 36.391224 35.511455  L 36.664318 36.391224  L 37.197972 38.110377  L 37.731626 39.82953  L 38.110377 41.049668  L 38.267905 41.548684  L 38.810604 43.267837  L 39.353303 44.98699  L 39.82953 46.495576  L 39.897148 46.706144  L 40.449203 48.425297  L 41.001259 50.14445  L 41.548684 51.849181  L 41.553396 51.863604  L 42.115137 53.582757  L 42.676878 55.30191  L 43.238619 57.021064  L 43.267837 57.110483  L 43.809869 58.740217  L 44.381641 60.45937  L 44.953413 62.178523  L 44.98699 62.27948  L 45.53497 63.897677  L 46.117138 65.61683  L 46.699306 67.335983  L 46.706144 67.356175  L 47.292128 69.055137  L 47.885077 70.77429  L 48.425297 72.340566  L 48.47902 72.493443  L 49.083157 74.212597  L 49.687293 75.93175  L 50.14445 77.232653  L 50.294256 77.650903  L 50.910011 79.370057  L 51.525765 81.08921  L 51.863604 82.032437  L 52.146969 82.808363  L 52.774797 84.527517  L 53.402625 86.24667  L 53.582757 86.739917  L 54.039407 87.965823  L 54.679792 89.684977  L 55.30191 91.355094  L 55.320549 91.40413  L 55.974003 93.123283  L 56.627456 94.842437  L 57.021064 95.877967  L 57.286323 96.56159  L 57.953391 98.280743  L 58.620458 99.999897  L 58.740217 100.308537  L 59.29917 101.71905  L 59.980431 103.438203  L 60.45937 104.646803  L 60.666089 105.157357  L 61.362159 106.87651  L 62.058229 108.595663  L 62.178523 108.892765  L 62.767095 110.314817  L 63.478633 112.03397  L 63.897677 113.046424  L 64.196819 113.753123  L 64.924529 115.472277  L 65.61683 117.10778  L 65.653062 117.19143  L 66.397696 118.910583  L 67.142329 120.629737  L 67.335983 121.076832  L 67.900081 122.34889  L 68.662443 124.068043  L 69.055137 124.95358  L 69.433822 125.787197  L 70.214779 127.50635  L 70.77429 128.738025  L 71.001272 129.225503  L 71.801753 130.944657  L 72.493443 132.430167  L 72.605023 132.66381  L 73.426029 134.382963  L 74.212597 136.030005  L 74.247941 136.102117  L 75.090553 137.82127  L 75.93175 139.537539  L 75.933202 139.540423  L 76.798587 141.259577  L 77.650903 142.95277  L 77.664334 142.97873  L 78.553757 144.697883  L 79.370057 146.275697  L 79.44527 146.417037  L 80.360105 148.13619  L 81.08921 149.506321  L 81.280403 149.855343  L 82.222145 151.574497  L 82.808363 152.644641  L 83.17466 153.29365  L 84.14494 155.012803  L 84.527517 155.690657  L 85.133585 156.731957  L 86.134186 158.45111  L 86.24667 158.64437  L 87.163436 160.170263  L 87.965823 161.50578  L 88.203998 161.889417  L 89.271305 163.60857  L 89.684977 164.274886  L 90.361152 165.327723  L 91.40413 166.951689  L 91.467447 167.046877  L 92.610991 168.76603  L 93.123283 169.536188  L 93.777915 170.485183  L 94.842437 172.028383  L 94.96848 172.204337  L 96.199989 173.92349  L 96.56159 174.428275  L 97.466295 175.642643  L 98.280743 176.735863  L 98.766494 177.361797  L 99.999897 178.951148  L 100.105008 179.08095  L 101.497148 180.800103  L 101.71905 181.074129  L 102.942482 182.519257  L 103.438203 183.104807  L 104.443601 184.23841  L 105.157357 185.043181  L 106.008875 185.957563  L 106.87651 186.889252  L 107.648433 187.676717  L 108.595663 188.643019  L 109.374655 189.39587  L 110.314817 190.304483  L 111.202835 191.115023  L 112.03397 191.873643  L 113.152091 192.834177  L 113.753123 193.350499  L 115.246638 194.55333  L 115.472277 194.735052  L 117.19143 196.027302  L 117.542699 196.272483  L 118.910583 197.227248  L 120.096978 197.991637  L 120.629737 198.33489  L 122.34889 199.350229  L 123.020434 199.71079  L 124.068043 200.273265  L 125.787197 201.103996  L 126.546042 201.429943  L 127.50635 201.842425  L 129.225503 202.488549  L 130.944657 203.042371  L 131.342211 203.149097  z "
           clip-path="url(#pe6626776b1)"
           style="fill: #ffffff"
           id="path33" />
      </g>
      <g
         id="PathCollection_3">
        <path
           d="M 132.66381 203.503888  L 134.382963 203.873102  L 136.102117 204.150013  L 137.82127 204.33462  L 139.540423 204.426924  L 141.259577 204.426924  L 142.97873 204.33462  L 144.697883 204.150013  L 146.417037 203.873102  L 148.13619 203.503888  L 149.457789 203.149097  L 149.855343 203.042371  L 151.574497 202.488549  L 153.29365 201.842425  L 154.253958 201.429943  L 155.012803 201.103996  L 156.731957 200.273265  L 157.779566 199.71079  L 158.45111 199.350229  L 160.170263 198.33489  L 160.703022 197.991637  L 161.889417 197.227248  L 163.257301 196.272483  L 163.60857 196.027302  L 165.327723 194.735052  L 165.553362 194.55333  L 167.046877 193.350499  L 167.647909 192.834177  L 168.76603 191.873643  L 169.597165 191.115023  L 170.485183 190.304483  L 171.425345 189.39587  L 172.204337 188.643019  L 173.151567 187.676717  L 173.92349 186.889252  L 174.791125 185.957563  L 175.642643 185.043181  L 176.356399 184.23841  L 177.361797 183.104807  L 177.857518 182.519257  L 179.08095 181.074129  L 179.302852 180.800103  L 180.694992 179.08095  L 180.800103 178.951148  L 182.033506 177.361797  L 182.519257 176.735863  L 183.333705 175.642643  L 184.23841 174.428275  L 184.600011 173.92349  L 185.83152 172.204337  L 185.957563 172.028383  L 187.022085 170.485183  L 187.676717 169.536188  L 188.189009 168.76603  L 189.332553 167.046877  L 189.39587 166.951689  L 190.438848 165.327723  L 191.115023 164.274886  L 191.528695 163.60857  L 192.596002 161.889417  L 192.834177 161.50578  L 193.636564 160.170263  L 194.55333 158.64437  L 194.665814 158.45111  L 195.666415 156.731957  L 196.272483 155.690657  L 196.65506 155.012803  L 197.62534 153.29365  L 197.991637 152.644641  L 198.577855 151.574497  L 199.519597 149.855343  L 199.71079 149.506321  L 200.439895 148.13619  L 201.35473 146.417037  L 201.429943 146.275697  L 202.246243 144.697883  L 203.135666 142.97873  L 203.149097 142.95277  L 204.001413 141.259577  L 204.866798 139.540423  L 204.86825 139.537539  L 205.709447 137.82127  L 206.552059 136.102117  L 206.587403 136.030005  L 207.373971 134.382963  L 208.194977 132.66381  L 208.306557 132.430167  L 208.998247 130.944657  L 209.798728 129.225503  L 210.02571 128.738025  L 210.585221 127.50635  L 211.366178 125.787197  L 211.744863 124.95358  L 212.137557 124.068043  L 212.899919 122.34889  L 213.464017 121.076832  L 213.657671 120.629737  L 214.402304 118.910583  L 215.146938 117.19143  L 215.18317 117.10778  L 215.875471 115.472277  L 216.603181 113.753123  L 216.902323 113.046424  L 217.321367 112.03397  L 218.032905 110.314817  L 218.621477 108.892765  L 218.741771 108.595663  L 219.437841 106.87651  L 220.133911 105.157357  L 220.34063 104.646803  L 220.819569 103.438203  L 221.50083 101.71905  L 222.059783 100.308537  L 222.179542 99.999897  L 222.846609 98.280743  L 223.513677 96.56159  L 223.778936 95.877967  L 224.172544 94.842437  L 224.825997 93.123283  L 225.479451 91.40413  L 225.49809 91.355094  L 226.120208 89.684977  L 226.760593 87.965823  L 227.217243 86.739917  L 227.397375 86.24667  L 228.025203 84.527517  L 228.653031 82.808363  L 228.936396 82.032437  L 229.274235 81.08921  L 229.889989 79.370057  L 230.505744 77.650903  L 230.65555 77.232653  L 231.112707 75.93175  L 231.716843 74.212597  L 232.32098 72.493443  L 232.374703 72.340566  L 232.914923 70.77429  L 233.507872 69.055137  L 234.093856 67.356175  L 234.100694 67.335983  L 234.682862 65.61683  L 235.26503 63.897677  L 235.81301 62.27948  L 235.846587 62.178523  L 236.418359 60.45937  L 236.990131 58.740217  L 237.532163 57.110483  L 237.561381 57.021064  L 238.123122 55.30191  L 238.684863 53.582757  L 239.246604 51.863604  L 239.251316 51.849181  L 239.798741 50.14445  L 240.350797 48.425297  L 240.902852 46.706144  L 240.97047 46.495576  L 241.446697 44.98699  L 241.989396 43.267837  L 242.532095 41.548684  L 242.689623 41.049668  L 243.068374 39.82953  L 243.602028 38.110377  L 244.135682 36.391224  L 244.408776 35.511455  L 244.665064 34.67207  L 245.18997 32.952917  L 245.714875 31.233764  L 246.12793 29.88094  L 246.237976 29.51461  L 246.754416 27.795457  L 247.270855 26.076304  L 247.787294 24.35715  L 247.847083 24.158121  L 248.296485 22.637997  L 248.804727 20.918844  L 249.312968 19.19969  L 249.566236 18.342998  L 249.817226 17.480537  L 250.317527 15.761384  L 250.817827 14.04223  L 251.28539 12.435572  L 251.317624 12.323077  L 251.317624 12.323077  L 251.28539 12.435572  L 250.817827 14.04223  L 250.317527 15.761384  L 249.817226 17.480537  L 249.566236 18.342998  L 249.312968 19.19969  L 248.804727 20.918844  L 248.296485 22.637997  L 247.847083 24.158121  L 247.787294 24.35715  L 247.270855 26.076304  L 246.754416 27.795457  L 246.237976 29.51461  L 246.12793 29.88094  L 245.714875 31.233764  L 245.18997 32.952917  L 244.665064 34.67207  L 244.408776 35.511455  L 244.135682 36.391224  L 243.602028 38.110377  L 243.068374 39.82953  L 242.689623 41.049668  L 242.532095 41.548684  L 241.989396 43.267837  L 241.446697 44.98699  L 240.97047 46.495576  L 240.902852 46.706144  L 240.350797 48.425297  L 239.798741 50.14445  L 239.251316 51.849181  L 239.246604 51.863604  L 238.684863 53.582757  L 238.123122 55.30191  L 237.561381 57.021064  L 237.532163 57.110483  L 236.990131 58.740217  L 236.418359 60.45937  L 235.846587 62.178523  L 235.81301 62.27948  L 235.26503 63.897677  L 234.682862 65.61683  L 234.100694 67.335983  L 234.093856 67.356175  L 233.507872 69.055137  L 232.914923 70.77429  L 232.374703 72.340566  L 232.32098 72.493443  L 231.716843 74.212597  L 231.112707 75.93175  L 230.65555 77.232653  L 230.505744 77.650903  L 229.889989 79.370057  L 229.274235 81.08921  L 228.936396 82.032437  L 228.653031 82.808363  L 228.025203 84.527517  L 227.397375 86.24667  L 227.217243 86.739917  L 226.760593 87.965823  L 226.120208 89.684977  L 225.49809 91.355094  L 225.479451 91.40413  L 224.825997 93.123283  L 224.172544 94.842437  L 223.778936 95.877967  L 223.513677 96.56159  L 222.846609 98.280743  L 222.179542 99.999897  L 222.059783 100.308537  L 221.50083 101.71905  L 220.819569 103.438203  L 220.34063 104.646803  L 220.133911 105.157357  L 219.437841 106.87651  L 218.741771 108.595663  L 218.621477 108.892765  L 218.032905 110.314817  L 217.321367 112.03397  L 216.902323 113.046424  L 216.603181 113.753123  L 215.875471 115.472277  L 215.18317 117.10778  L 215.146938 117.19143  L 214.402304 118.910583  L 213.657671 120.629737  L 213.464017 121.076832  L 212.899919 122.34889  L 212.137557 124.068043  L 211.744863 124.95358  L 211.366178 125.787197  L 210.585221 127.50635  L 210.02571 128.738025  L 209.798728 129.225503  L 208.998247 130.944657  L 208.306557 132.430167  L 208.194977 132.66381  L 207.373971 134.382963  L 206.587403 136.030005  L 206.552059 136.102117  L 205.709447 137.82127  L 204.86825 139.537539  L 204.866798 139.540423  L 204.001413 141.259577  L 203.149097 142.95277  L 203.135666 142.97873  L 202.246243 144.697883  L 201.429943 146.275697  L 201.35473 146.417037  L 200.439895 148.13619  L 199.71079 149.506321  L 199.519597 149.855343  L 198.577855 151.574497  L 197.991637 152.644641  L 197.62534 153.29365  L 196.65506 155.012803  L 196.272483 155.690657  L 195.666415 156.731957  L 194.665814 158.45111  L 194.55333 158.64437  L 193.636564 160.170263  L 192.834177 161.50578  L 192.596002 161.889417  L 191.528695 163.60857  L 191.115023 164.274886  L 190.438848 165.327723  L 189.39587 166.951689  L 189.332553 167.046877  L 188.189009 168.76603  L 187.676717 169.536188  L 187.022085 170.485183  L 185.957563 172.028383  L 185.83152 172.204337  L 184.600011 173.92349  L 184.23841 174.428275  L 183.333705 175.642643  L 182.519257 176.735863  L 182.033506 177.361797  L 180.800103 178.951148  L 180.694992 179.08095  L 179.302852 180.800103  L 179.08095 181.074129  L 177.857518 182.519257  L 177.361797 183.104807  L 176.356399 184.23841  L 175.642643 185.043181  L 174.791125 185.957563  L 173.92349 186.889252  L 173.151567 187.676717  L 172.204337 188.643019  L 171.425345 189.39587  L 170.485183 190.304483  L 169.597165 191.115023  L 168.76603 191.873643  L 167.647909 192.834177  L 167.046877 193.350499  L 165.553362 194.55333  L 165.327723 194.735052  L 163.60857 196.027302  L 163.257301 196.272483  L 161.889417 197.227248  L 160.703022 197.991637  L 160.170263 198.33489  L 158.45111 199.350229  L 157.779566 199.71079  L 156.731957 200.273265  L 155.012803 201.103996  L 154.253958 201.429943  L 153.29365 201.842425  L 151.574497 202.488549  L 149.855343 203.042371  L 149.457789 203.149097  L 148.13619 203.503888  L 146.417037 203.873102  L 144.697883 204.150013  L 142.97873 204.33462  L 141.259577 204.426924  L 139.540423 204.426924  L 137.82127 204.33462  L 136.102117 204.150013  L 134.382963 203.873102  L 132.66381 203.503888  L 131.342211 203.149097  L 130.944657 203.042371  L 129.225503 202.488549  L 127.50635 201.842425  L 126.546042 201.429943  L 125.787197 201.103996  L 124.068043 200.273265  L 123.020434 199.71079  L 122.34889 199.350229  L 120.629737 198.33489  L 120.096978 197.991637  L 118.910583 197.227248  L 117.542699 196.272483  L 117.19143 196.027302  L 115.472277 194.735052  L 115.246638 194.55333  L 113.753123 193.350499  L 113.152091 192.834177  L 112.03397 191.873643  L 111.202835 191.115023  L 110.314817 190.304483  L 109.374655 189.39587  L 108.595663 188.643019  L 107.648433 187.676717  L 106.87651 186.889252  L 106.008875 185.957563  L 105.157357 185.043181  L 104.443601 184.23841  L 103.438203 183.104807  L 102.942482 182.519257  L 101.71905 181.074129  L 101.497148 180.800103  L 100.105008 179.08095  L 99.999897 178.951148  L 98.766494 177.361797  L 98.280743 176.735863  L 97.466295 175.642643  L 96.56159 174.428275  L 96.199989 173.92349  L 94.96848 172.204337  L 94.842437 172.028383  L 93.777915 170.485183  L 93.123283 169.536188  L 92.610991 168.76603  L 91.467447 167.046877  L 91.40413 166.951689  L 90.361152 165.327723  L 89.684977 164.274886  L 89.271305 163.60857  L 88.203998 161.889417  L 87.965823 161.50578  L 87.163436 160.170263  L 86.24667 158.64437  L 86.134186 158.45111  L 85.133585 156.731957  L 84.527517 155.690657  L 84.14494 155.012803  L 83.17466 153.29365  L 82.808363 152.644641  L 82.222145 151.574497  L 81.280403 149.855343  L 81.08921 149.506321  L 80.360105 148.13619  L 79.44527 146.417037  L 79.370057 146.275697  L 78.553757 144.697883  L 77.664334 142.97873  L 77.650903 142.95277  L 76.798587 141.259577  L 75.933202 139.540423  L 75.93175 139.537539  L 75.090553 137.82127  L 74.247941 136.102117  L 74.212597 136.030005  L 73.426029 134.382963  L 72.605023 132.66381  L 72.493443 132.430167  L 71.801753 130.944657  L 71.001272 129.225503  L 70.77429 128.738025  L 70.214779 127.50635  L 69.433822 125.787197  L 69.055137 124.95358  L 68.662443 124.068043  L 67.900081 122.34889  L 67.335983 121.076832  L 67.142329 120.629737  L 66.397696 118.910583  L 65.653062 117.19143  L 65.61683 117.10778  L 64.924529 115.472277  L 64.196819 113.753123  L 63.897677 113.046424  L 63.478633 112.03397  L 62.767095 110.314817  L 62.178523 108.892765  L 62.058229 108.595663  L 61.362159 106.87651  L 60.666089 105.157357  L 60.45937 104.646803  L 59.980431 103.438203  L 59.29917 101.71905  L 58.740217 100.308537  L 58.620458 99.999897  L 57.953391 98.280743  L 57.286323 96.56159  L 57.021064 95.877967  L 56.627456 94.842437  L 55.974003 93.123283  L 55.320549 91.40413  L 55.30191 91.355094  L 54.679792 89.684977  L 54.039407 87.965823  L 53.582757 86.739917  L 53.402625 86.24667  L 52.774797 84.527517  L 52.146969 82.808363  L 51.863604 82.032437  L 51.525765 81.08921  L 50.910011 79.370057  L 50.294256 77.650903  L 50.14445 77.232653  L 49.687293 75.93175  L 49.083157 74.212597  L 48.47902 72.493443  L 48.425297 72.340566  L 47.885077 70.77429  L 47.292128 69.055137  L 46.706144 67.356175  L 46.699306 67.335983  L 46.117138 65.61683  L 45.53497 63.897677  L 44.98699 62.27948  L 44.953413 62.178523  L 44.381641 60.45937  L 43.809869 58.740217  L 43.267837 57.110483  L 43.238619 57.021064  L 42.676878 55.30191  L 42.115137 53.582757  L 41.553396 51.863604  L 41.548684 51.849181  L 41.001259 50.14445  L 40.449203 48.425297  L 39.897148 46.706144  L 39.82953 46.495576  L 39.353303 44.98699  L 38.810604 43.267837  L 38.267905 41.548684  L 38.110377 41.049668  L 37.731626 39.82953  L 37.197972 38.110377  L 36.664318 36.391224  L 36.391224 35.511455  L 36.134936 34.67207  L 35.61003 32.952917  L 35.085125 31.233764  L 34.67207 29.88094  L 34.562024 29.51461  L 34.045584 27.795457  L 33.529145 26.076304  L 33.012706 24.35715  L 32.952917 24.158121  L 32.503515 22.637997  L 31.995273 20.918844  L 31.487032 19.19969  L 31.233764 18.342998  L 30.982774 17.480537  L 30.482473 15.761384  L 29.982173 14.04223  L 29.51461 12.435572  L 29.482376 12.323077  L 29.482376 12.323077  L 29.51461 12.435572  L 29.982173 14.04223  L 30.482473 15.761384  L 30.982774 17.480537  L 31.233764 18.342998  L 31.487032 19.19969  L 31.995273 20.918844  L 32.503515 22.637997  L 32.952917 24.158121  L 33.012706 24.35715  L 33.529145 26.076304  L 34.045584 27.795457  L 34.562024 29.51461  L 34.67207 29.88094  L 35.085125 31.233764  L 35.61003 32.952917  L 36.134936 34.67207  L 36.391224 35.511455  L 36.664318 36.391224  L 37.197972 38.110377  L 37.731626 39.82953  L 38.110377 41.049668  L 38.267905 41.548684  L 38.810604 43.267837  L 39.353303 44.98699  L 39.82953 46.495576  L 39.897148 46.706144  L 40.449203 48.425297  L 41.001259 50.14445  L 41.548684 51.849181  L 41.553396 51.863604  L 42.115137 53.582757  L 42.676878 55.30191  L 43.238619 57.021064  L 43.267837 57.110483  L 43.809869 58.740217  L 44.381641 60.45937  L 44.953413 62.178523  L 44.98699 62.27948  L 45.53497 63.897677  L 46.117138 65.61683  L 46.699306 67.335983  L 46.706144 67.356175  L 47.292128 69.055137  L 47.885077 70.77429  L 48.425297 72.340566  L 48.47902 72.493443  L 49.083157 74.212597  L 49.687293 75.93175  L 50.14445 77.232653  L 50.294256 77.650903  L 50.910011 79.370057  L 51.525765 81.08921  L 51.863604 82.032437  L 52.146969 82.808363  L 52.774797 84.527517  L 53.402625 86.24667  L 53.582757 86.739917  L 54.039407 87.965823  L 54.679792 89.684977  L 55.30191 91.355094  L 55.320549 91.40413  L 55.974003 93.123283  L 56.627456 94.842437  L 57.021064 95.877967  L 57.286323 96.56159  L 57.953391 98.280743  L 58.620458 99.999897  L 58.740217 100.308537  L 59.29917 101.71905  L 59.980431 103.438203  L 60.45937 104.646803  L 60.666089 105.157357  L 61.362159 106.87651  L 62.058229 108.595663  L 62.178523 108.892765  L 62.767095 110.314817  L 63.478633 112.03397  L 63.897677 113.046424  L 64.196819 113.753123  L 64.924529 115.472277  L 65.61683 117.10778  L 65.653062 117.19143  L 66.397696 118.910583  L 67.142329 120.629737  L 67.335983 121.076832  L 67.900081 122.34889  L 68.662443 124.068043  L 69.055137 124.95358  L 69.433822 125.787197  L 70.214779 127.50635  L 70.77429 128.738025  L 71.001272 129.225503  L 71.801753 130.944657  L 72.493443 132.430167  L 72.605023 132.66381  L 73.426029 134.382963  L 74.212597 136.030005  L 74.247941 136.102117  L 75.090553 137.82127  L 75.93175 139.537539  L 75.933202 139.540423  L 76.798587 141.259577  L 77.650903 142.95277  L 77.664334 142.97873  L 78.553757 144.697883  L 79.370057 146.275697  L 79.44527 146.417037  L 80.360105 148.13619  L 81.08921 149.506321  L 81.280403 149.855343  L 82.222145 151.574497  L 82.808363 152.644641  L 83.17466 153.29365  L 84.14494 155.012803  L 84.527517 155.690657  L 85.133585 156.731957  L 86.134186 158.45111  L 86.24667 158.64437  L 87.163436 160.170263  L 87.965823 161.50578  L 88.203998 161.889417  L 89.271305 163.60857  L 89.684977 164.274886  L 90.361152 165.327723  L 91.40413 166.951689  L 91.467447 167.046877  L 92.610991 168.76603  L 93.123283 169.536188  L 93.777915 170.485183  L 94.842437 172.028383  L 94.96848 172.204337  L 96.199989 173.92349  L 96.56159 174.428275  L 97.466295 175.642643  L 98.280743 176.735863  L 98.766494 177.361797  L 99.999897 178.951148  L 100.105008 179.08095  L 101.497148 180.800103  L 101.71905 181.074129  L 102.942482 182.519257  L 103.438203 183.104807  L 104.443601 184.23841  L 105.157357 185.043181  L 106.008875 185.957563  L 106.87651 186.889252  L 107.648433 187.676717  L 108.595663 188.643019  L 109.374655 189.39587  L 110.314817 190.304483  L 111.202835 191.115023  L 112.03397 191.873643  L 113.152091 192.834177  L 113.753123 193.350499  L 115.246638 194.55333  L 115.472277 194.735052  L 117.19143 196.027302  L 117.542699 196.272483  L 118.910583 197.227248  L 120.096978 197.991637  L 120.629737 198.33489  L 122.34889 199.350229  L 123.020434 199.71079  L 124.068043 200.273265  L 125.787197 201.103996  L 126.546042 201.429943  L 127.50635 201.842425  L 129.225503 202.488549  L 130.944657 203.042371  L 131.342211 203.149097  z "
           clip-path="url(#pe6626776b1)"
           style="fill: #ffffff"
           id="path36" />
      </g>
      <g
         id="PathCollection_4">
        <path
           d="M 14.04223 268.476923  L 15.761384 268.476923  L 17.480537 268.476923  L 19.19969 268.476923  L 20.918844 268.476923  L 22.637997 268.476923  L 24.35715 268.476923  L 26.076304 268.476923  L 27.795457 268.476923  L 29.51461 268.476923  L 31.233764 268.476923  L 32.952917 268.476923  L 34.67207 268.476923  L 36.391224 268.476923  L 38.110377 268.476923  L 39.82953 268.476923  L 41.548684 268.476923  L 43.267837 268.476923  L 44.98699 268.476923  L 46.706144 268.476923  L 48.425297 268.476923  L 50.14445 268.476923  L 51.863604 268.476923  L 53.582757 268.476923  L 55.30191 268.476923  L 57.021064 268.476923  L 58.740217 268.476923  L 60.45937 268.476923  L 62.178523 268.476923  L 63.897677 268.476923  L 65.61683 268.476923  L 67.335983 268.476923  L 69.055137 268.476923  L 70.77429 268.476923  L 72.493443 268.476923  L 74.212597 268.476923  L 75.93175 268.476923  L 77.650903 268.476923  L 79.370057 268.476923  L 81.08921 268.476923  L 82.808363 268.476923  L 84.527517 268.476923  L 86.24667 268.476923  L 87.965823 268.476923  L 89.684977 268.476923  L 91.40413 268.476923  L 93.123283 268.476923  L 94.842437 268.476923  L 96.56159 268.476923  L 98.280743 268.476923  L 99.999897 268.476923  L 101.71905 268.476923  L 103.438203 268.476923  L 105.157357 268.476923  L 106.87651 268.476923  L 108.595663 268.476923  L 110.314817 268.476923  L 112.03397 268.476923  L 113.753123 268.476923  L 115.472277 268.476923  L 117.19143 268.476923  L 118.910583 268.476923  L 120.629737 268.476923  L 122.34889 268.476923  L 124.068043 268.476923  L 125.787197 268.476923  L 127.50635 268.476923  L 129.225503 268.476923  L 130.944657 268.476923  L 132.66381 268.476923  L 134.382963 268.476923  L 136.102117 268.476923  L 137.82127 268.476923  L 139.540423 268.476923  L 141.259577 268.476923  L 142.97873 268.476923  L 144.697883 268.476923  L 146.417037 268.476923  L 148.13619 268.476923  L 149.855343 268.476923  L 151.574497 268.476923  L 153.29365 268.476923  L 155.012803 268.476923  L 156.731957 268.476923  L 158.45111 268.476923  L 160.170263 268.476923  L 161.889417 268.476923  L 163.60857 268.476923  L 165.327723 268.476923  L 167.046877 268.476923  L 168.76603 268.476923  L 170.485183 268.476923  L 172.204337 268.476923  L 173.92349 268.476923  L 175.642643 268.476923  L 177.361797 268.476923  L 179.08095 268.476923  L 180.800103 268.476923  L 182.519257 268.476923  L 184.23841 268.476923  L 185.957563 268.476923  L 187.676717 268.476923  L 189.39587 268.476923  L 191.115023 268.476923  L 192.834177 268.476923  L 194.55333 268.476923  L 196.272483 268.476923  L 197.991637 268.476923  L 199.71079 268.476923  L 201.429943 268.476923  L 203.149097 268.476923  L 204.86825 268.476923  L 206.587403 268.476923  L 208.306557 268.476923  L 210.02571 268.476923  L 211.744863 268.476923  L 213.464017 268.476923  L 215.18317 268.476923  L 216.902323 268.476923  L 218.621477 268.476923  L 220.34063 268.476923  L 222.059783 268.476923  L 223.778936 268.476923  L 225.49809 268.476923  L 227.217243 268.476923  L 228.936396 268.476923  L 230.65555 268.476923  L 232.374703 268.476923  L 234.093856 268.476923  L 235.81301 268.476923  L 237.532163 268.476923  L 239.251316 268.476923  L 240.97047 268.476923  L 242.689623 268.476923  L 244.408776 268.476923  L 246.12793 268.476923  L 247.847083 268.476923  L 249.566236 268.476923  L 251.28539 268.476923  L 253.004543 268.476923  L 254.723696 268.476923  L 256.44285 268.476923  L 258.162003 268.476923  L 259.881156 268.476923  L 261.60031 268.476923  L 263.319463 268.476923  L 265.038616 268.476923  L 266.75777 268.476923  L 268.476923 268.476923  L 268.476923 266.75777  L 268.476923 265.038616  L 268.476923 263.319463  L 268.476923 261.60031  L 268.476923 259.881156  L 268.476923 258.162003  L 268.476923 256.44285  L 268.476923 254.723696  L 268.476923 253.004543  L 268.476923 251.28539  L 268.476923 249.566236  L 268.476923 247.847083  L 268.476923 246.12793  L 268.476923 244.408776  L 268.476923 242.689623  L 268.476923 240.97047  L 268.476923 239.251316  L 268.476923 237.532163  L 268.476923 235.81301  L 268.476923 234.093856  L 268.476923 232.374703  L 268.476923 230.65555  L 268.476923 228.936396  L 268.476923 227.217243  L 268.476923 225.49809  L 268.476923 223.778936  L 268.476923 222.059783  L 268.476923 220.34063  L 268.476923 218.621477  L 268.476923 216.902323  L 268.476923 215.18317  L 268.476923 213.464017  L 268.476923 211.744863  L 268.476923 210.02571  L 268.476923 208.306557  L 268.476923 206.587403  L 268.476923 204.86825  L 268.476923 203.149097  L 268.476923 201.429943  L 268.476923 199.71079  L 268.476923 197.991637  L 268.476923 196.272483  L 268.476923 194.55333  L 268.476923 192.834177  L 268.476923 191.115023  L 268.476923 189.39587  L 268.476923 187.676717  L 268.476923 185.957563  L 268.476923 184.23841  L 268.476923 182.519257  L 268.476923 180.800103  L 268.476923 179.08095  L 268.476923 177.361797  L 268.476923 175.642643  L 268.476923 173.92349  L 268.476923 172.204337  L 268.476923 170.485183  L 268.476923 168.76603  L 268.476923 167.046877  L 268.476923 165.327723  L 268.476923 163.60857  L 268.476923 161.889417  L 268.476923 160.170263  L 268.476923 158.45111  L 268.476923 156.731957  L 268.476923 155.012803  L 268.476923 153.29365  L 268.476923 151.574497  L 268.476923 149.855343  L 268.476923 148.13619  L 268.476923 146.417037  L 268.476923 144.697883  L 268.476923 142.97873  L 268.476923 141.259577  L 268.476923 139.540423  L 268.476923 137.82127  L 268.476923 136.102117  L 268.476923 134.382963  L 268.476923 132.66381  L 268.476923 130.944657  L 268.476923 129.225503  L 268.476923 127.50635  L 268.476923 125.787197  L 268.476923 124.068043  L 268.476923 122.34889  L 268.476923 120.629737  L 268.476923 118.910583  L 268.476923 117.19143  L 268.476923 115.472277  L 268.476923 113.753123  L 268.476923 112.03397  L 268.476923 110.314817  L 268.476923 108.595663  L 268.476923 106.87651  L 268.476923 105.157357  L 268.476923 103.438203  L 268.476923 101.71905  L 268.476923 99.999897  L 268.476923 98.280743  L 268.476923 96.56159  L 268.476923 94.842437  L 268.476923 93.123283  L 268.476923 91.40413  L 268.476923 89.684977  L 268.476923 87.965823  L 268.476923 86.24667  L 268.476923 84.527517  L 268.476923 82.808363  L 268.476923 81.08921  L 268.476923 79.370057  L 268.476923 77.650903  L 268.476923 75.93175  L 268.476923 74.212597  L 268.476923 72.493443  L 268.476923 70.77429  L 268.476923 69.055137  L 268.476923 67.335983  L 268.476923 65.61683  L 268.476923 63.897677  L 268.476923 62.178523  L 268.476923 60.45937  L 268.476923 58.740217  L 268.476923 57.021064  L 268.476923 55.30191  L 268.476923 53.582757  L 268.476923 51.863604  L 268.476923 50.14445  L 268.476923 48.425297  L 268.476923 46.706144  L 268.476923 44.98699  L 268.476923 43.267837  L 268.476923 41.548684  L 268.476923 39.82953  L 268.476923 38.110377  L 268.476923 36.391224  L 268.476923 34.67207  L 268.476923 32.952917  L 268.476923 31.233764  L 268.476923 29.51461  L 268.476923 27.795457  L 268.476923 26.076304  L 268.476923 24.35715  L 268.476923 22.637997  L 268.476923 20.918844  L 268.476923 19.19969  L 268.476923 17.480537  L 268.476923 15.761384  L 268.476923 14.04223  L 268.476923 12.323077  L 266.75777 12.323077  L 265.038616 12.323077  L 263.319463 12.323077  L 261.60031 12.323077  L 259.881156 12.323077  L 258.162003 12.323077  L 256.44285 12.323077  L 254.723696 12.323077  L 253.004543 12.323077  L 251.317624 12.323077  L 251.28539 12.435572  L 250.817827 14.04223  L 250.317527 15.761384  L 249.817226 17.480537  L 249.566236 18.342998  L 249.312968 19.19969  L 248.804727 20.918844  L 248.296485 22.637997  L 247.847083 24.158121  L 247.787294 24.35715  L 247.270855 26.076304  L 246.754416 27.795457  L 246.237976 29.51461  L 246.12793 29.88094  L 245.714875 31.233764  L 245.18997 32.952917  L 244.665064 34.67207  L 244.408776 35.511455  L 244.135682 36.391224  L 243.602028 38.110377  L 243.068374 39.82953  L 242.689623 41.049668  L 242.532095 41.548684  L 241.989396 43.267837  L 241.446697 44.98699  L 240.97047 46.495576  L 240.902852 46.706144  L 240.350797 48.425297  L 239.798741 50.14445  L 239.251316 51.849181  L 239.246604 51.863604  L 238.684863 53.582757  L 238.123122 55.30191  L 237.561381 57.021064  L 237.532163 57.110483  L 236.990131 58.740217  L 236.418359 60.45937  L 235.846587 62.178523  L 235.81301 62.27948  L 235.26503 63.897677  L 234.682862 65.61683  L 234.100694 67.335983  L 234.093856 67.356175  L 233.507872 69.055137  L 232.914923 70.77429  L 232.374703 72.340566  L 232.32098 72.493443  L 231.716843 74.212597  L 231.112707 75.93175  L 230.65555 77.232653  L 230.505744 77.650903  L 229.889989 79.370057  L 229.274235 81.08921  L 228.936396 82.032437  L 228.653031 82.808363  L 228.025203 84.527517  L 227.397375 86.24667  L 227.217243 86.739917  L 226.760593 87.965823  L 226.120208 89.684977  L 225.49809 91.355094  L 225.479451 91.40413  L 224.825997 93.123283  L 224.172544 94.842437  L 223.778936 95.877967  L 223.513677 96.56159  L 222.846609 98.280743  L 222.179542 99.999897  L 222.059783 100.308537  L 221.50083 101.71905  L 220.819569 103.438203  L 220.34063 104.646803  L 220.133911 105.157357  L 219.437841 106.87651  L 218.741771 108.595663  L 218.621477 108.892765  L 218.032905 110.314817  L 217.321367 112.03397  L 216.902323 113.046424  L 216.603181 113.753123  L 215.875471 115.472277  L 215.18317 117.10778  L 215.146938 117.19143  L 214.402304 118.910583  L 213.657671 120.629737  L 213.464017 121.076832  L 212.899919 122.34889  L 212.137557 124.068043  L 211.744863 124.95358  L 211.366178 125.787197  L 210.585221 127.50635  L 210.02571 128.738025  L 209.798728 129.225503  L 208.998247 130.944657  L 208.306557 132.430167  L 208.194977 132.66381  L 207.373971 134.382963  L 206.587403 136.030005  L 206.552059 136.102117  L 205.709447 137.82127  L 204.86825 139.537539  L 204.866798 139.540423  L 204.001413 141.259577  L 203.149097 142.95277  L 203.135666 142.97873  L 202.246243 144.697883  L 201.429943 146.275697  L 201.35473 146.417037  L 200.439895 148.13619  L 199.71079 149.506321  L 199.519597 149.855343  L 198.577855 151.574497  L 197.991637 152.644641  L 197.62534 153.29365  L 196.65506 155.012803  L 196.272483 155.690657  L 195.666415 156.731957  L 194.665814 158.45111  L 194.55333 158.64437  L 193.636564 160.170263  L 192.834177 161.50578  L 192.596002 161.889417  L 191.528695 163.60857  L 191.115023 164.274886  L 190.438848 165.327723  L 189.39587 166.951689  L 189.332553 167.046877  L 188.189009 168.76603  L 187.676717 169.536188  L 187.022085 170.485183  L 185.957563 172.028383  L 185.83152 172.204337  L 184.600011 173.92349  L 184.23841 174.428275  L 183.333705 175.642643  L 182.519257 176.735863  L 182.033506 177.361797  L 180.800103 178.951148  L 180.694992 179.08095  L 179.302852 180.800103  L 179.08095 181.074129  L 177.857518 182.519257  L 177.361797 183.104807  L 176.356399 184.23841  L 175.642643 185.043181  L 174.791125 185.957563  L 173.92349 186.889252  L 173.151567 187.676717  L 172.204337 188.643019  L 171.425345 189.39587  L 170.485183 190.304483  L 169.597165 191.115023  L 168.76603 191.873643  L 167.647909 192.834177  L 167.046877 193.350499  L 165.553362 194.55333  L 165.327723 194.735052  L 163.60857 196.027302  L 163.257301 196.272483  L 161.889417 197.227248  L 160.703022 197.991637  L 160.170263 198.33489  L 158.45111 199.350229  L 157.779566 199.71079  L 156.731957 200.273265  L 155.012803 201.103996  L 154.253958 201.429943  L 153.29365 201.842425  L 151.574497 202.488549  L 149.855343 203.042371  L 149.457789 203.149097  L 148.13619 203.503888  L 146.417037 203.873102  L 144.697883 204.150013  L 142.97873 204.33462  L 141.259577 204.426924  L 139.540423 204.426924  L 137.82127 204.33462  L 136.102117 204.150013  L 134.382963 203.873102  L 132.66381 203.503888  L 131.342211 203.149097  L 130.944657 203.042371  L 129.225503 202.488549  L 127.50635 201.842425  L 126.546042 201.429943  L 125.787197 201.103996  L 124.068043 200.273265  L 123.020434 199.71079  L 122.34889 199.350229  L 120.629737 198.33489  L 120.096978 197.991637  L 118.910583 197.227248  L 117.542699 196.272483  L 117.19143 196.027302  L 115.472277 194.735052  L 115.246638 194.55333  L 113.753123 193.350499  L 113.152091 192.834177  L 112.03397 191.873643  L 111.202835 191.115023  L 110.314817 190.304483  L 109.374655 189.39587  L 108.595663 188.643019  L 107.648433 187.676717  L 106.87651 186.889252  L 106.008875 185.957563  L 105.157357 185.043181  L 104.443601 184.23841  L 103.438203 183.104807  L 102.942482 182.519257  L 101.71905 181.074129  L 101.497148 180.800103  L 100.105008 179.08095  L 99.999897 178.951148  L 98.766494 177.361797  L 98.280743 176.735863  L 97.466295 175.642643  L 96.56159 174.428275  L 96.199989 173.92349  L 94.96848 172.204337  L 94.842437 172.028383  L 93.777915 170.485183  L 93.123283 169.536188  L 92.610991 168.76603  L 91.467447 167.046877  L 91.40413 166.951689  L 90.361152 165.327723  L 89.684977 164.274886  L 89.271305 163.60857  L 88.203998 161.889417  L 87.965823 161.50578  L 87.163436 160.170263  L 86.24667 158.64437  L 86.134186 158.45111  L 85.133585 156.731957  L 84.527517 155.690657  L 84.14494 155.012803  L 83.17466 153.29365  L 82.808363 152.644641  L 82.222145 151.574497  L 81.280403 149.855343  L 81.08921 149.506321  L 80.360105 148.13619  L 79.44527 146.417037  L 79.370057 146.275697  L 78.553757 144.697883  L 77.664334 142.97873  L 77.650903 142.95277  L 76.798587 141.259577  L 75.933202 139.540423  L 75.93175 139.537539  L 75.090553 137.82127  L 74.247941 136.102117  L 74.212597 136.030005  L 73.426029 134.382963  L 72.605023 132.66381  L 72.493443 132.430167  L 71.801753 130.944657  L 71.001272 129.225503  L 70.77429 128.738025  L 70.214779 127.50635  L 69.433822 125.787197  L 69.055137 124.95358  L 68.662443 124.068043  L 67.900081 122.34889  L 67.335983 121.076832  L 67.142329 120.629737  L 66.397696 118.910583  L 65.653062 117.19143  L 65.61683 117.10778  L 64.924529 115.472277  L 64.196819 113.753123  L 63.897677 113.046424  L 63.478633 112.03397  L 62.767095 110.314817  L 62.178523 108.892765  L 62.058229 108.595663  L 61.362159 106.87651  L 60.666089 105.157357  L 60.45937 104.646803  L 59.980431 103.438203  L 59.29917 101.71905  L 58.740217 100.308537  L 58.620458 99.999897  L 57.953391 98.280743  L 57.286323 96.56159  L 57.021064 95.877967  L 56.627456 94.842437  L 55.974003 93.123283  L 55.320549 91.40413  L 55.30191 91.355094  L 54.679792 89.684977  L 54.039407 87.965823  L 53.582757 86.739917  L 53.402625 86.24667  L 52.774797 84.527517  L 52.146969 82.808363  L 51.863604 82.032437  L 51.525765 81.08921  L 50.910011 79.370057  L 50.294256 77.650903  L 50.14445 77.232653  L 49.687293 75.93175  L 49.083157 74.212597  L 48.47902 72.493443  L 48.425297 72.340566  L 47.885077 70.77429  L 47.292128 69.055137  L 46.706144 67.356175  L 46.699306 67.335983  L 46.117138 65.61683  L 45.53497 63.897677  L 44.98699 62.27948  L 44.953413 62.178523  L 44.381641 60.45937  L 43.809869 58.740217  L 43.267837 57.110483  L 43.238619 57.021064  L 42.676878 55.30191  L 42.115137 53.582757  L 41.553396 51.863604  L 41.548684 51.849181  L 41.001259 50.14445  L 40.449203 48.425297  L 39.897148 46.706144  L 39.82953 46.495576  L 39.353303 44.98699  L 38.810604 43.267837  L 38.267905 41.548684  L 38.110377 41.049668  L 37.731626 39.82953  L 37.197972 38.110377  L 36.664318 36.391224  L 36.391224 35.511455  L 36.134936 34.67207  L 35.61003 32.952917  L 35.085125 31.233764  L 34.67207 29.88094  L 34.562024 29.51461  L 34.045584 27.795457  L 33.529145 26.076304  L 33.012706 24.35715  L 32.952917 24.158121  L 32.503515 22.637997  L 31.995273 20.918844  L 31.487032 19.19969  L 31.233764 18.342998  L 30.982774 17.480537  L 30.482473 15.761384  L 29.982173 14.04223  L 29.51461 12.435572  L 29.482376 12.323077  L 27.795457 12.323077  L 26.076304 12.323077  L 24.35715 12.323077  L 22.637997 12.323077  L 20.918844 12.323077  L 19.19969 12.323077  L 17.480537 12.323077  L 15.761384 12.323077  L 14.04223 12.323077  L 12.323077 12.323077  L 12.323077 14.04223  L 12.323077 15.761384  L 12.323077 17.480537  L 12.323077 19.19969  L 12.323077 20.918844  L 12.323077 22.637997  L 12.323077 24.35715  L 12.323077 26.076304  L 12.323077 27.795457  L 12.323077 29.51461  L 12.323077 31.233764  L 12.323077 32.952917  L 12.323077 34.67207  L 12.323077 36.391224  L 12.323077 38.110377  L 12.323077 39.82953  L 12.323077 41.548684  L 12.323077 43.267837  L 12.323077 44.98699  L 12.323077 46.706144  L 12.323077 48.425297  L 12.323077 50.14445  L 12.323077 51.863604  L 12.323077 53.582757  L 12.323077 55.30191  L 12.323077 57.021064  L 12.323077 58.740217  L 12.323077 60.45937  L 12.323077 62.178523  L 12.323077 63.897677  L 12.323077 65.61683  L 12.323077 67.335983  L 12.323077 69.055137  L 12.323077 70.77429  L 12.323077 72.493443  L 12.323077 74.212597  L 12.323077 75.93175  L 12.323077 77.650903  L 12.323077 79.370057  L 12.323077 81.08921  L 12.323077 82.808363  L 12.323077 84.527517  L 12.323077 86.24667  L 12.323077 87.965823  L 12.323077 89.684977  L 12.323077 91.40413  L 12.323077 93.123283  L 12.323077 94.842437  L 12.323077 96.56159  L 12.323077 98.280743  L 12.323077 99.999897  L 12.323077 101.71905  L 12.323077 103.438203  L 12.323077 105.157357  L 12.323077 106.87651  L 12.323077 108.595663  L 12.323077 110.314817  L 12.323077 112.03397  L 12.323077 113.753123  L 12.323077 115.472277  L 12.323077 117.19143  L 12.323077 118.910583  L 12.323077 120.629737  L 12.323077 122.34889  L 12.323077 124.068043  L 12.323077 125.787197  L 12.323077 127.50635  L 12.323077 129.225503  L 12.323077 130.944657  L 12.323077 132.66381  L 12.323077 134.382963  L 12.323077 136.102117  L 12.323077 137.82127  L 12.323077 139.540423  L 12.323077 141.259577  L 12.323077 142.97873  L 12.323077 144.697883  L 12.323077 146.417037  L 12.323077 148.13619  L 12.323077 149.855343  L 12.323077 151.574497  L 12.323077 153.29365  L 12.323077 155.012803  L 12.323077 156.731957  L 12.323077 158.45111  L 12.323077 160.170263  L 12.323077 161.889417  L 12.323077 163.60857  L 12.323077 165.327723  L 12.323077 167.046877  L 12.323077 168.76603  L 12.323077 170.485183  L 12.323077 172.204337  L 12.323077 173.92349  L 12.323077 175.642643  L 12.323077 177.361797  L 12.323077 179.08095  L 12.323077 180.800103  L 12.323077 182.519257  L 12.323077 184.23841  L 12.323077 185.957563  L 12.323077 187.676717  L 12.323077 189.39587  L 12.323077 191.115023  L 12.323077 192.834177  L 12.323077 194.55333  L 12.323077 196.272483  L 12.323077 197.991637  L 12.323077 199.71079  L 12.323077 201.429943  L 12.323077 203.149097  L 12.323077 204.86825  L 12.323077 206.587403  L 12.323077 208.306557  L 12.323077 210.02571  L 12.323077 211.744863  L 12.323077 213.464017  L 12.323077 215.18317  L 12.323077 216.902323  L 12.323077 218.621477  L 12.323077 220.34063  L 12.323077 222.059783  L 12.323077 223.778936  L 12.323077 225.49809  L 12.323077 227.217243  L 12.323077 228.936396  L 12.323077 230.65555  L 12.323077 232.374703  L 12.323077 234.093856  L 12.323077 235.81301  L 12.323077 237.532163  L 12.323077 239.251316  L 12.323077 240.97047  L 12.323077 242.689623  L 12.323077 244.408776  L 12.323077 246.12793  L 12.323077 247.847083  L 12.323077 249.566236  L 12.323077 251.28539  L 12.323077 253.004543  L 12.323077 254.723696  L 12.323077 256.44285  L 12.323077 258.162003  L 12.323077 259.881156  L 12.323077 261.60031  L 12.323077 263.319463  L 12.323077 265.038616  L 12.323077 266.75777  L 12.323077 268.476923  L 14.04223 268.476923  z "
           clip-path="url(#pe6626776b1)"
           style="fill: none"
           id="path39" />
      </g>
      <g
         id="matplotlib.axis_1">
        <g
           id="xtick_1">
          <g
             id="line2d_1">
            <defs
               id="defs43">
              <path
                 id="mdf76ac13c5"
                 d="M 0 0  L 0 3.5  "
                 style="stroke: #000000; stroke-width: 0.8" />
            </defs>
            <g
               id="g47">
              <use
                 xlink:href="#mdf76ac13c5"
                 x="76.361538"
                 y="204.438462"
                 style="stroke: #000000; stroke-width: 0.8"
                 id="use45" />
            </g>
          </g>
        </g>
        <g
           id="xtick_2">
          <g
             id="line2d_2">
            <g
               id="g53">
              <use
                 xlink:href="#mdf76ac13c5"
                 x="140.4"
                 y="204.438462"
                 style="stroke: #000000; stroke-width: 0.8"
                 id="use51" />
            </g>
          </g>
        </g>
        <g
           id="xtick_3">
          <g
             id="line2d_3">
            <g
               id="g59">
              <use
                 xlink:href="#mdf76ac13c5"
                 x="204.438462"
                 y="204.438462"
                 style="stroke: #000000; stroke-width: 0.8"
                 id="use57" />
            </g>
          </g>
        </g>
        <g
           id="xtick_4">
          <g
             id="line2d_4">
            <g
               id="g65">
              <use
                 xlink:href="#mdf76ac13c5"
                 x="268.476923"
                 y="204.438462"
                 style="stroke: #000000; stroke-width: 0.8"
                 id="use63" />
            </g>
          </g>
        </g>
      </g>
      <g
         id="matplotlib.axis_2">
        <g
           id="ytick_1">
          <g
             id="line2d_5">
            <defs
               id="defs71">
              <path
                 id="m0daf214e50"
                 d="M 0 0  L -3.5 0  "
                 style="stroke: #000000; stroke-width: 0.8" />
            </defs>
            <g
               id="g75">
              <use
                 xlink:href="#m0daf214e50"
                 x="140.4"
                 y="268.476923"
                 style="stroke: #000000; stroke-width: 0.8"
                 id="use73" />
            </g>
          </g>
        </g>
        <g
           id="ytick_2">
          <g
             id="line2d_6">
            <g
               id="g81">
              <use
                 xlink:href="#m0daf214e50"
                 x="140.4"
                 y="204.438462"
                 style="stroke: #000000; stroke-width: 0.8"
                 id="use79" />
            </g>
          </g>
        </g>
        <g
           id="ytick_3">
          <g
             id="line2d_7">
            <g
               id="g87">
              <use
                 xlink:href="#m0daf214e50"
                 x="140.4"
                 y="140.4"
                 style="stroke: #000000; stroke-width: 0.8"
                 id="use85" />
            </g>
          </g>
        </g>
        <g
           id="ytick_4">
          <g
             id="line2d_8">
            <g
               id="g93">
              <use
                 xlink:href="#m0daf214e50"
                 x="140.4"
                 y="76.361538"
                 style="stroke: #000000; stroke-width: 0.8"
                 id="use91" />
            </g>
          </g>
        </g>
        <g
           id="ytick_5">
          <g
             id="line2d_9">
            <g
               id="g99">
              <use
                 xlink:href="#m0daf214e50"
                 x="140.4"
                 y="12.323077"
                 style="stroke: #000000; stroke-width: 0.8"
                 id="use97" />
            </g>
          </g>
        </g>
      </g>
      <g
         id="PathCollection_5">
        <path
           d="M 251.317624 12.323077  L 247.270855 26.076304  L 242.532095 41.548684  L 236.990131 58.740217  L 232.32098 72.493443  L 227.217243 86.739917  L 222.059783 100.308537  L 216.902323 113.046424  L 211.744863 124.95358  L 207.373971 134.382963  L 204.001413 141.259577  L 200.439895 148.13619  L 196.65506 155.012803  L 193.636564 160.170263  L 190.438848 165.327723  L 187.022085 170.485183  L 183.333705 175.642643  L 180.694992 179.08095  L 177.361797 183.104807  L 173.92349 186.889252  L 170.485183 190.304483  L 167.046877 193.350499  L 163.257301 196.272483  L 160.170263 198.33489  L 156.731957 200.273265  L 153.29365 201.842425  L 149.855343 203.042371  L 146.417037 203.873102  L 142.97873 204.33462  L 139.540423 204.426924  L 136.102117 204.150013  L 132.66381 203.503888  L 129.225503 202.488549  L 125.787197 201.103996  L 122.34889 199.350229  L 118.910583 197.227248  L 115.246638 194.55333  L 112.03397 191.873643  L 108.595663 188.643019  L 105.157357 185.043181  L 101.497148 180.800103  L 98.280743 176.735863  L 94.842437 172.028383  L 91.40413 166.951689  L 87.163436 160.170263  L 84.14494 155.012803  L 80.360105 148.13619  L 76.798587 141.259577  L 73.426029 134.382963  L 69.433822 125.787197  L 66.397696 118.910583  L 62.178523 108.892765  L 57.021064 95.877967  L 51.863604 82.032437  L 46.699306 67.335983  L 41.548684 51.849181  L 36.134936 34.67207  L 30.982774 17.480537  L 29.482376 12.323077  L 29.482376 12.323077  "
           clip-path="url(#pe6626776b1)"
           style="fill: none; stroke: #ffffff; stroke-width: 1.5"
           id="path104" />
      </g>
      <g
         id="PathCollection_6">
        <path
           d="M 251.317624 12.323077  L 247.270855 26.076304  L 242.532095 41.548684  L 236.990131 58.740217  L 232.32098 72.493443  L 227.217243 86.739917  L 222.059783 100.308537  L 216.902323 113.046424  L 211.744863 124.95358  L 207.373971 134.382963  L 204.001413 141.259577  L 200.439895 148.13619  L 196.65506 155.012803  L 193.636564 160.170263  L 190.438848 165.327723  L 187.022085 170.485183  L 183.333705 175.642643  L 180.694992 179.08095  L 177.361797 183.104807  L 173.92349 186.889252  L 170.485183 190.304483  L 167.046877 193.350499  L 163.257301 196.272483  L 160.170263 198.33489  L 156.731957 200.273265  L 153.29365 201.842425  L 149.855343 203.042371  L 146.417037 203.873102  L 142.97873 204.33462  L 139.540423 204.426924  L 136.102117 204.150013  L 132.66381 203.503888  L 129.225503 202.488549  L 125.787197 201.103996  L 122.34889 199.350229  L 118.910583 197.227248  L 115.246638 194.55333  L 112.03397 191.873643  L 108.595663 188.643019  L 105.157357 185.043181  L 101.497148 180.800103  L 98.280743 176.735863  L 94.842437 172.028383  L 91.40413 166.951689  L 87.163436 160.170263  L 84.14494 155.012803  L 80.360105 148.13619  L 76.798587 141.259577  L 73.426029 134.382963  L 69.433822 125.787197  L 66.397696 118.910583  L 62.178523 108.892765  L 57.021064 95.877967  L 51.863604 82.032437  L 46.699306 67.335983  L 41.548684 51.849181  L 36.134936 34.67207  L 30.982774 17.480537  L 29.482376 12.323077  L 29.482376 12.323077  "
           clip-path="url(#pe6626776b1)"
           style="fill: none; stroke: #ffffff; stroke-width: 1.5"
           id="path107" />
      </g>
      <g
         id="PathCollection_7">
        <path
           d="M 251.317624 12.323077  L 247.270855 26.076304  L 242.532095 41.548684  L 236.990131 58.740217  L 232.32098 72.493443  L 227.217243 86.739917  L 222.059783 100.308537  L 216.902323 113.046424  L 211.744863 124.95358  L 207.373971 134.382963  L 204.001413 141.259577  L 200.439895 148.13619  L 196.65506 155.012803  L 193.636564 160.170263  L 190.438848 165.327723  L 187.022085 170.485183  L 183.333705 175.642643  L 180.694992 179.08095  L 177.361797 183.104807  L 173.92349 186.889252  L 170.485183 190.304483  L 167.046877 193.350499  L 163.257301 196.272483  L 160.170263 198.33489  L 156.731957 200.273265  L 153.29365 201.842425  L 149.855343 203.042371  L 146.417037 203.873102  L 142.97873 204.33462  L 139.540423 204.426924  L 136.102117 204.150013  L 132.66381 203.503888  L 129.225503 202.488549  L 125.787197 201.103996  L 122.34889 199.350229  L 118.910583 197.227248  L 115.246638 194.55333  L 112.03397 191.873643  L 108.595663 188.643019  L 105.157357 185.043181  L 101.497148 180.800103  L 98.280743 176.735863  L 94.842437 172.028383  L 91.40413 166.951689  L 87.163436 160.170263  L 84.14494 155.012803  L 80.360105 148.13619  L 76.798587 141.259577  L 73.426029 134.382963  L 69.433822 125.787197  L 66.397696 118.910583  L 62.178523 108.892765  L 57.021064 95.877967  L 51.863604 82.032437  L 46.699306 67.335983  L 41.548684 51.849181  L 36.134936 34.67207  L 30.982774 17.480537  L 29.482376 12.323077  L 29.482376 12.323077  "
           clip-path="url(#pe6626776b1)"
           style="fill: none; stroke: #ffffff; stroke-width: 1.5"
           id="path110" />
      </g>
      <g
         id="PathCollection_8">
        <path
           d="M 251.317624 12.323077  L 247.270855 26.076304  L 242.532095 41.548684  L 236.990131 58.740217  L 232.32098 72.493443  L 227.217243 86.739917  L 222.059783 100.308537  L 216.902323 113.046424  L 211.744863 124.95358  L 207.373971 134.382963  L 204.001413 141.259577  L 200.439895 148.13619  L 196.65506 155.012803  L 193.636564 160.170263  L 190.438848 165.327723  L 187.022085 170.485183  L 183.333705 175.642643  L 180.694992 179.08095  L 177.361797 183.104807  L 173.92349 186.889252  L 170.485183 190.304483  L 167.046877 193.350499  L 163.257301 196.272483  L 160.170263 198.33489  L 156.731957 200.273265  L 153.29365 201.842425  L 149.855343 203.042371  L 146.417037 203.873102  L 142.97873 204.33462  L 139.540423 204.426924  L 136.102117 204.150013  L 132.66381 203.503888  L 129.225503 202.488549  L 125.787197 201.103996  L 122.34889 199.350229  L 118.910583 197.227248  L 115.246638 194.55333  L 112.03397 191.873643  L 108.595663 188.643019  L 105.157357 185.043181  L 101.497148 180.800103  L 98.280743 176.735863  L 94.842437 172.028383  L 91.40413 166.951689  L 87.163436 160.170263  L 84.14494 155.012803  L 80.360105 148.13619  L 76.798587 141.259577  L 73.426029 134.382963  L 69.433822 125.787197  L 66.397696 118.910583  L 62.178523 108.892765  L 57.021064 95.877967  L 51.863604 82.032437  L 46.699306 67.335983  L 41.548684 51.849181  L 36.134936 34.67207  L 30.982774 17.480537  L 29.482376 12.323077  L 29.482376 12.323077  "
           clip-path="url(#pe6626776b1)"
           style="fill: none; stroke: #0000ff; stroke-width: 2"
           id="path113" />
      </g>
      <g
         id="patch_3">
        <path
           d="M 140.4 273.6  L 140.4 7.2  "
           style="fill: none; stroke: #000000; stroke-width: 0.8; stroke-linejoin: miter; stroke-linecap: square"
           id="path116" />
      </g>
      <g
         id="patch_4">
        <path
           d="M 7.2 204.438462  L 273.6 204.438462  "
           style="fill: none; stroke: #000000; stroke-width: 0.8; stroke-linejoin: miter; stroke-linecap: square"
           id="path119" />
      </g>
    </g>
  </g>
  <defs
     id="defs127">
    <clipPath
       id="pe6626776b1">
      <rect
         x="7.2"
         y="7.2"
         width="266.4"
         height="266.4"
         id="rect124" />
    </clipPath>
  </defs>
</svg>
